# Blender v2.76 (sub 0) OBJ File: 'Box.blend'
# www.blender.org
mtllib Box.mtl
o Cube_Cube.001
v -1.426264 -0.325808 2.481906
v -1.426264 0.325808 2.481906
v -1.426264 -0.325808 -2.481906
v -1.426264 0.325808 -2.481906
v 1.426264 -0.325808 2.481906
v 1.426264 0.325808 2.481906
v 1.426264 -0.325808 -2.481906
v 1.426264 0.325808 -2.481906
v -1.371931 -0.274824 -2.350674
v -1.371931 -0.274824 2.394086
v 1.359490 -0.274824 -2.350674
v 1.359490 -0.274824 2.394086
v 1.426264 0.325808 -2.481906
v 1.426264 0.325808 2.481906
v -1.426264 0.325808 -2.481906
v -1.426264 0.325808 2.481906
v 1.362743 0.325808 -2.371370
v 1.362743 0.325808 2.371370
v -1.362743 0.325808 -2.371370
v -1.362743 0.325808 2.371370
vn 0.000000 -1.000000 0.000000
vn 0.000000 0.000000 1.000000
vn 0.000000 1.000000 0.000000
vn 0.000000 -0.037800 -0.999300
vn -1.000000 0.000000 0.000000
vn 0.000000 0.000000 -1.000000
vn 1.000000 0.000000 0.000000
vn -1.000000 0.005400 0.000000
vn 0.000000 0.034400 0.999400
vn 0.999900 -0.015300 0.000000
usemtl Material
s off
f 3//1 7//1 5//1
f 4//2 2//2 16//2
f 11//3 9//3 10//3
f 2//2 6//2 14//2
f 6//2 8//2 13//2
f 12//4 10//4 20//4
f 1//1 3//1 5//1
f 15//2 4//2 16//2
f 12//3 11//3 10//3
f 16//2 2//2 14//2
f 14//2 6//2 13//2
f 18//4 12//4 20//4
usemtl Material.001
f 4//5 3//5 1//5
f 8//6 7//6 3//6
f 6//7 5//7 7//7
f 2//2 1//2 5//2
f 8//2 4//2 15//2
f 18//3 14//3 13//3
f 17//3 13//3 15//3
f 19//3 15//3 16//3
f 20//3 16//3 14//3
f 11//8 12//8 18//8
f 11//9 17//9 19//9
f 9//10 19//10 20//10
f 2//5 4//5 1//5
f 4//6 8//6 3//6
f 8//7 6//7 7//7
f 6//2 2//2 5//2
f 13//2 8//2 15//2
f 17//3 18//3 13//3
f 19//3 17//3 15//3
f 20//3 19//3 16//3
f 18//3 20//3 14//3
f 17//8 11//8 18//8
f 9//9 11//9 19//9
f 10//10 9//10 20//10
