# Blender v2.76 (sub 0) OBJ File: 'Box.blend'
# www.blender.org
mtllib Box.mtl
o Cube_Cube.001
v -1.426264 -0.325808 2.481906
v -1.426264 0.325808 2.481906
v -1.426264 -0.325808 -2.481906
v -1.426264 0.325808 -2.481906
v 1.426264 -0.325808 2.481906
v 1.426264 0.325808 2.481906
v 1.426264 -0.325808 -2.481906
v 1.426264 0.325808 -2.481906
v -1.102114 -0.142452 -2.126499
v -1.102114 -0.142452 2.157014
v 1.082274 -0.142452 -2.126499
v 1.082274 -0.142452 2.157014
v 1.426264 0.325808 -2.481906
v 1.426264 0.325808 2.481906
v -1.426264 0.325808 -2.481906
v -1.426264 0.325808 2.481906
v 1.085528 0.325808 -2.147195
v 1.085528 0.325808 2.134298
v -1.092927 0.325808 -2.147195
v -1.092927 0.325808 2.134298
vn 0.000000 -1.000000 0.000000
vn 0.000000 0.000000 1.000000
vn 0.000000 1.000000 0.000000
vn -1.000000 0.000000 0.000000
vn 0.000000 0.000000 -1.000000
vn 1.000000 0.000000 0.000000
vn -1.000000 0.006900 0.000000
vn 0.000000 0.044200 0.999000
vn 0.999800 -0.019600 0.000000
vn 0.000000 -0.048500 -0.998800
usemtl Floor
s off
f 3//1 7//1 5//1
f 4//2 2//2 16//2
f 11//3 9//3 10//3
f 2//2 6//2 14//2
f 6//2 8//2 13//2
f 1//1 3//1 5//1
f 15//2 4//2 16//2
f 12//3 11//3 10//3
f 16//2 2//2 14//2
f 14//2 6//2 13//2
usemtl Walls
f 4//4 3//4 1//4
f 8//5 7//5 3//5
f 6//6 5//6 7//6
f 2//2 1//2 5//2
f 8//2 4//2 15//2
f 18//3 14//3 13//3
f 17//3 13//3 15//3
f 20//3 19//3 15//3
f 18//3 20//3 16//3
f 11//7 12//7 18//7
f 11//8 17//8 19//8
f 9//9 19//9 20//9
f 12//10 10//10 20//10
f 2//4 4//4 1//4
f 4//5 8//5 3//5
f 8//6 6//6 7//6
f 6//2 2//2 5//2
f 13//2 8//2 15//2
f 17//3 18//3 13//3
f 19//3 17//3 15//3
f 16//3 20//3 15//3
f 14//3 18//3 16//3
f 17//7 11//7 18//7
f 9//8 11//8 19//8
f 10//9 9//9 20//9
f 18//10 12//10 20//10
