# Blender v2.78 (sub 0) OBJ File: ''
# www.blender.org
mtllib cube.mtl
o Cube
v 0.970671 -0.887980 -1.071671
v 0.970671 -0.887980 0.928328
v -1.029329 -0.887980 0.928328
v -1.029328 -0.887980 -1.071672
v 0.970672 1.112020 -1.071671
v 0.970671 1.112020 0.928329
v -1.029329 1.112020 0.928328
v -1.029329 1.112020 -1.071672
vt 0.9999 0.9999
vt 0.0001 0.0001
vt 0.9999 0.0001
vt 0.0001 0.9999
vt 1.0000 0.0000
vt 0.0000 1.0000
vt 0.0000 0.0000
vt 1.0000 0.0000
vt 0.0000 1.0000
vt 0.0000 0.0000
vt 1.0000 0.0000
vt 0.0000 1.0000
vt 0.0000 0.0000
vt 1.0000 0.0000
vt 0.0000 0.0000
vt 1.0000 0.0000
vt 0.0000 1.0000
vt 1.0000 1.0000
vt 1.0000 1.0000
vt 1.0000 1.0000
vt 1.0000 1.0000
vn 1.0000 -0.0000 0.0000
vn 0.0000 -1.0000 0.0000
vn 0.0000 1.0000 -0.0000
vn -0.0000 -0.0000 1.0000
vn -1.0000 -0.0000 -0.0000
vn 0.0000 0.0000 -1.0000
usemtl Material
s off
f 5/1/1 2/2/1 1/3/1
f 5/1/1 6/4/1 2/2/1
usemtl Material_ExternalWallTexture.png
f 2/5/2 4/6/2 1/7/2
f 8/8/3 6/9/3 5/10/3
f 6/11/4 3/12/4 2/13/4
f 7/14/5 4/6/5 3/15/5
f 1/16/6 8/17/6 5/10/6
f 2/5/2 3/18/2 4/6/2
f 8/8/3 7/19/3 6/9/3
f 6/11/4 7/19/4 3/12/4
f 7/14/5 8/20/5 4/6/5
f 1/16/6 4/21/6 8/17/6
