# Blender v2.78 (sub 0) OBJ File: 'building3.blend'
# www.blender.org
mtllib building3.mtl
o Cube
v -0.387882 -2.527480 -1.026332
v 1.026332 -2.527480 0.387882
v 0.387882 -2.527480 1.026332
v -1.026332 -2.527480 -0.387882
v -0.387881 2.527480 -1.026332
v 1.026332 2.527480 0.387882
v 0.387881 2.527480 1.026332
v -1.026332 2.527480 -0.387882
vt 0.0000 0.6667
vt 0.3333 1.0000
vt 0.0000 1.0000
vt 0.9396 0.0188
vt 0.6063 0.3521
vt 0.6063 0.0188
vt 0.4472 0.9099
vt 0.2247 0.4401
vt 0.4739 0.4669
vt 0.0000 0.3333
vt 0.3333 0.0000
vt 0.3333 0.3333
vt 0.4625 0.9272
vt 0.2416 0.4561
vt 0.4907 0.4844
vt 0.7063 0.3965
vt 0.9563 0.8410
vt 0.7063 0.8410
vt 0.3333 0.6667
vt 0.9396 0.3521
vt 0.1980 0.8831
vt 0.0000 0.0000
vt 0.2134 0.8990
vt 0.9562 0.3965
vn 0.0000 -1.0000 -0.0000
vn 0.0000 1.0000 0.0000
vn 0.7071 -0.0000 -0.7071
vn 0.7071 0.0000 0.7071
vn -0.7071 -0.0000 0.7071
vn -0.7071 0.0000 -0.7071
usemtl Material
s off
f 1/1/1 3/2/1 4/3/1
f 5/4/2 7/5/2 6/6/2
f 5/7/3 2/8/3 1/9/3
f 2/10/4 7/11/4 3/12/4
f 7/13/5 4/14/5 3/15/5
f 1/16/6 8/17/6 5/18/6
f 1/1/1 2/19/1 3/2/1
f 5/4/2 8/20/2 7/5/2
f 5/7/3 6/21/3 2/8/3
f 2/10/4 6/22/4 7/11/4
f 7/13/5 8/23/5 4/14/5
f 1/16/6 4/24/6 8/17/6
