# Blender v2.78 (sub 0) OBJ File: 'building2.blend'
# www.blender.org
mtllib building2.mtl
o Cube
v 0.475980 -1.709158 -0.540022
v 0.475980 -1.709158 0.540022
v -0.475980 -1.709158 0.540022
v -0.475980 -1.709158 -0.540022
v 0.452129 1.939121 -0.452129
v 0.452129 1.939121 0.452129
v -0.452129 1.939121 0.452129
v -0.452129 1.939121 -0.452129
v 0.475980 1.709158 -0.540021
v 0.475979 1.709158 0.540022
v -0.475980 1.709158 -0.540022
v -0.475980 1.709158 0.540022
v 0.367858 2.272125 -0.367857
v 0.367857 2.272125 0.367858
v -0.367857 2.272125 -0.367857
v -0.367858 2.272125 0.367857
v 0.452129 2.272125 -0.452129
v 0.452129 2.272125 0.452129
v -0.452129 2.272125 -0.452129
v -0.452129 2.272125 0.452129
v -0.011080 3.393640 0.011080
v -0.011080 3.393640 -0.011080
v 0.011080 3.393640 0.011080
v 0.011080 3.393640 -0.011080
v 0.367858 2.618198 -0.367857
v 0.367857 2.618198 0.367858
v -0.367857 2.618198 -0.367857
v -0.367858 2.618198 0.367857
v 0.125079 3.017376 -0.125079
v 0.125079 3.017376 0.125079
v -0.125079 3.017376 -0.125079
v -0.125079 3.017376 0.125079
v 0.055414 3.393640 -0.055413
v 0.055414 3.393640 0.055414
v -0.055414 3.393640 -0.055413
v -0.055414 3.393640 0.055414
v -0.011080 4.319097 0.011080
v -0.011080 4.319097 -0.011080
v 0.011080 4.319097 0.011080
v 0.011080 4.319097 -0.011080
v 0.540022 -1.709829 -0.476167
v -0.540022 -1.709829 -0.476167
v 0.540022 1.709829 -0.476166
v 0.540022 -1.709829 0.476167
v -0.540022 -1.709829 0.476167
v 0.540021 1.709829 0.476167
v -0.540022 1.709829 0.476166
v -0.540022 1.709829 -0.476167
v 0.475980 -1.709157 -0.622308
v -0.475980 -1.709157 -0.622308
v 0.475980 1.709157 -0.622307
v 0.475980 -1.709157 0.622307
v -0.475980 -1.709157 0.622307
v 0.475979 1.709157 0.622308
v -0.475980 1.709157 0.622307
v -0.475980 1.709157 -0.622308
v 0.540022 -1.939121 -0.540022
v 0.540022 -1.939121 0.540022
v 0.540022 1.939121 -0.540021
v 0.540021 1.939121 0.540022
v -0.540022 -1.939121 0.540022
v -0.540022 -1.939121 -0.540022
v -0.540022 1.939121 0.540022
v -0.540022 1.939121 -0.540022
v 0.634629 -1.709829 -0.476167
v 0.634629 -1.709829 0.476167
v 0.634629 1.709829 -0.476166
v 0.634629 1.709829 0.476167
v -0.634629 -1.709829 0.476167
v -0.634629 -1.709829 -0.476167
v -0.634629 1.709829 0.476166
v -0.634629 1.709829 -0.476167
vt 0.9407 0.4446
vt 0.7391 0.7190
vt 0.7391 0.4446
vt 0.9653 0.7376
vt 0.5088 0.2422
vt 0.5088 0.7376
vt 0.1904 0.4961
vt 0.1727 0.2542
vt 0.1904 0.2542
vt 0.5140 0.2448
vt 0.8151 0.2108
vt 0.8151 0.2448
vt 0.5140 0.5408
vt 0.8152 0.5017
vt 0.8152 0.5408
vt 0.4406 0.3460
vt 0.4252 0.1042
vt 0.4406 0.1042
vt 0.3870 0.5264
vt 0.2017 0.5488
vt 0.2181 0.5264
vt 0.2017 0.2744
vt 0.2181 0.2967
vt 0.3870 0.2967
vt 0.4034 0.5488
vt 0.4034 0.2744
vt 0.9064 0.3302
vt 0.6026 0.6590
vt 0.6026 0.3302
vt 0.5291 0.6109
vt 0.9420 0.2063
vt 0.9420 0.6109
vt 0.8000 0.3852
vt 0.5140 0.4235
vt 0.5140 0.3852
vt 0.8000 0.3468
vt 0.5140 0.3852
vt 0.5140 0.3468
vt 0.5969 0.7246
vt 0.7500 0.7460
vt 0.5811 0.7460
vt 0.5811 0.5163
vt 0.5969 0.5377
vt 0.7343 0.5377
vt 0.7343 0.7246
vt 0.7500 0.5163
vt 0.3972 0.8107
vt 0.4013 0.7452
vt 0.4013 0.8107
vt 0.9617 0.3108
vt 0.5878 0.7616
vt 0.5878 0.3108
vt 0.9449 0.2690
vt 0.5156 0.7368
vt 0.5156 0.2690
vt 0.5262 0.7526
vt 0.9407 0.2407
vt 0.9407 0.7526
vt 0.7673 0.7187
vt 0.8136 0.5959
vt 0.8136 0.7791
vt 0.8077 0.7088
vt 0.7624 0.5835
vt 0.8077 0.6452
vt 0.7044 0.6119
vt 0.7498 0.7371
vt 0.7044 0.6754
vt 0.7464 0.7539
vt 0.7001 0.6311
vt 0.7464 0.6916
vt 0.3324 0.8084
vt 0.3519 0.8542
vt 0.3324 0.8366
vt 0.2737 0.8084
vt 0.2932 0.8542
vt 0.2737 0.8366
vt 0.2932 0.8366
vt 0.3128 0.7907
vt 0.3128 0.8542
vt 0.3128 0.8084
vt 0.3324 0.8542
vt 0.3128 0.8366
vt 0.3602 0.8020
vt 0.3726 0.7907
vt 0.3726 0.8189
vt 0.3644 0.8020
vt 0.3519 0.8189
vt 0.3602 0.8076
vt 0.3519 0.7907
vt 0.3644 0.8076
vt 0.3837 0.7963
vt 0.3795 0.7907
vt 0.3837 0.7907
vt 0.3972 0.6142
vt 0.4013 0.5488
vt 0.4013 0.6142
vt 0.4013 0.6142
vt 0.3972 0.6797
vt 0.3972 0.6142
vt 0.3972 0.7452
vt 0.4013 0.6797
vt 0.4013 0.7452
vt 0.3322 0.7248
vt 0.3441 0.4667
vt 0.3441 0.7410
vt 0.1544 0.4829
vt 0.3322 0.4829
vt 0.3336 0.2100
vt 0.3456 0.4681
vt 0.3336 0.4519
vt 0.1439 0.4681
vt 0.1558 0.4519
vt 0.1558 0.2100
vt 0.3456 0.1938
vt 0.1424 0.7410
vt 0.1544 0.7248
vt 0.1424 0.4667
vt 0.1439 0.1938
vt 0.6348 0.3947
vt 0.9302 0.7965
vt 0.6348 0.7965
vt 0.5239 0.6172
vt 0.8193 0.2153
vt 0.8193 0.6172
vt 0.4355 0.6962
vt 0.4201 0.4544
vt 0.4355 0.4544
vt 0.8151 0.2448
vt 0.5140 0.2788
vt 0.5140 0.2448
vt 0.1044 0.1521
vt 0.0891 0.3939
vt 0.0891 0.1521
vt 0.3784 0.3731
vt 0.3630 0.1313
vt 0.3784 0.1313
vt 0.8151 0.3128
vt 0.5140 0.3468
vt 0.5140 0.3128
vt 0.5140 0.3128
vt 0.8151 0.2788
vt 0.8151 0.3128
vt 0.3429 0.3594
vt 0.3548 0.6175
vt 0.3429 0.6013
vt 0.1531 0.6175
vt 0.1650 0.6013
vt 0.1650 0.3594
vt 0.3548 0.3431
vt 0.3116 0.2683
vt 0.3236 0.5265
vt 0.3116 0.5102
vt 0.1219 0.5265
vt 0.1338 0.5102
vt 0.1338 0.2683
vt 0.3236 0.2521
vt 0.1531 0.3431
vt 0.1219 0.2521
vt 0.6062 0.3086
vt 0.9077 0.7026
vt 0.6062 0.7026
vt 0.9052 0.7011
vt 0.6037 0.3071
vt 0.9052 0.3071
vt 0.1904 0.2542
vt 0.2081 0.4961
vt 0.3972 0.7907
vt 0.3795 0.5488
vt 0.3972 0.5488
vt 0.2899 0.3628
vt 0.2722 0.1208
vt 0.2899 0.1208
vt 0.5140 0.4626
vt 0.8152 0.5017
vt 0.5140 0.5017
vt 0.8152 0.5408
vt 0.5140 0.5799
vt 0.5140 0.5408
vt 0.8152 0.4235
vt 0.5140 0.4626
vt 0.5140 0.4235
vt 0.9407 0.7190
vt 0.9653 0.2422
vt 0.1727 0.4961
vt 0.5140 0.2108
vt 0.5140 0.5017
vt 0.4252 0.3460
vt 0.9064 0.6590
vt 0.5291 0.2063
vt 0.8000 0.4235
vt 0.8000 0.3852
vt 0.3972 0.7452
vt 0.9617 0.7616
vt 0.9449 0.7368
vt 0.5262 0.2407
vt 0.7673 0.6564
vt 0.7624 0.7704
vt 0.7498 0.5502
vt 0.7001 0.8143
vt 0.3519 0.7907
vt 0.2932 0.7907
vt 0.2932 0.8084
vt 0.3324 0.7907
vt 0.3795 0.7963
vt 0.3972 0.5488
vt 0.4013 0.6797
vt 0.9302 0.3947
vt 0.5239 0.2153
vt 0.4201 0.6962
vt 0.8151 0.2788
vt 0.1044 0.3939
vt 0.3630 0.3731
vt 0.8151 0.3468
vt 0.9077 0.3086
vt 0.6037 0.7011
vt 0.2081 0.2542
vt 0.3795 0.7907
vt 0.2722 0.3628
vt 0.8152 0.4626
vt 0.8152 0.5799
vt 0.8152 0.4626
vn 0.0000 -1.0000 0.0000
vn -0.0000 0.0000 1.0000
vn -0.0000 1.0000 0.0000
vn -1.0000 -0.0000 0.0000
vn 1.0000 0.0000 0.0000
vn 0.0000 0.0000 -1.0000
vn 0.8544 0.5196 0.0000
vn 0.0000 0.5196 -0.8544
vn -0.0000 0.5196 0.8544
vn -0.8544 0.5196 0.0000
vn 0.9833 0.1821 -0.0000
vn 0.0000 0.1821 -0.9833
vn -0.0000 0.1821 0.9833
vn -0.9833 0.1821 0.0000
usemtl Material
s off
f 58/1/1 62/2/1 57/3/1
f 6/4/2 20/5/2 7/6/2
f 48/7/3 71/8/3 47/9/3
f 3/10/4 55/11/4 12/12/4
f 41/13/1 66/14/1 44/15/1
f 9/16/3 56/17/3 11/18/3
f 6/19/3 59/20/3 5/21/3
f 5/21/3 64/22/3 8/23/3
f 7/24/3 60/25/3 6/19/3
f 8/23/3 63/26/3 7/24/3
f 16/27/4 27/28/4 15/29/4
f 5/30/5 18/31/5 6/32/5
f 7/33/4 19/34/4 8/35/4
f 8/36/6 17/37/6 5/38/6
f 13/39/3 18/40/3 17/41/3
f 13/39/3 19/42/3 15/43/3
f 16/44/3 18/40/3 14/45/3
f 15/43/3 20/46/3 16/44/3
f 22/47/6 40/48/6 24/49/6
f 15/50/6 25/51/6 13/52/6
f 14/53/2 28/54/2 16/55/2
f 13/56/5 26/57/5 14/58/5
f 29/59/7 26/60/7 25/61/7
f 29/62/8 27/63/8 31/64/8
f 32/65/9 26/66/9 30/67/9
f 31/68/10 28/69/10 32/70/10
f 34/71/11 29/72/11 33/73/11
f 33/74/12 31/75/12 35/76/12
f 34/77/13 32/78/13 30/79/13
f 35/80/14 32/81/14 36/82/14
f 21/83/3 34/84/3 33/85/3
f 23/86/3 33/85/3 35/87/3
f 22/88/3 36/89/3 34/84/3
f 24/90/3 35/87/3 36/89/3
f 37/91/3 40/92/3 38/93/3
f 21/94/4 38/95/4 22/96/4
f 24/97/5 39/98/5 23/99/5
f 23/100/2 37/101/2 21/102/2
f 4/103/6 57/104/6 62/105/6
f 9/106/6 57/104/6 1/107/6
f 3/108/2 58/109/2 2/110/2
f 2/110/2 60/111/2 10/112/2
f 12/113/2 61/114/2 3/108/2
f 4/103/6 64/115/6 11/116/6
f 11/116/6 59/117/6 9/106/6
f 10/112/2 63/118/2 12/113/2
f 54/119/2 53/120/2 52/121/2
f 51/122/6 50/123/6 56/124/6
f 2/125/1 53/126/1 3/127/1
f 4/128/1 49/129/1 1/130/1
f 10/131/3 55/132/3 54/133/3
f 11/134/4 50/135/4 4/136/4
f 10/137/5 52/138/5 2/139/5
f 1/140/5 51/141/5 9/142/5
f 44/143/5 57/144/5 41/145/5
f 41/145/5 59/146/5 43/147/5
f 46/148/5 58/149/5 44/143/5
f 42/150/4 61/151/4 45/152/4
f 45/152/4 63/153/4 47/154/4
f 48/155/4 62/156/4 42/150/4
f 43/147/5 60/157/5 46/148/5
f 47/154/4 64/158/4 48/155/4
f 67/159/5 66/160/5 65/161/5
f 71/162/4 70/163/4 69/164/4
f 42/165/6 72/166/6 48/7/6
f 45/167/1 70/168/1 42/169/1
f 43/170/6 65/171/6 41/172/6
f 43/173/3 68/174/3 67/175/3
f 47/176/2 69/177/2 45/178/2
f 44/179/2 68/180/2 46/181/2
f 58/1/1 61/182/1 62/2/1
f 6/4/2 18/183/2 20/5/2
f 48/7/3 72/184/3 71/8/3
f 3/10/4 53/185/4 55/11/4
f 41/13/1 65/186/1 66/14/1
f 9/16/3 51/187/3 56/17/3
f 6/19/3 60/25/3 59/20/3
f 5/21/3 59/20/3 64/22/3
f 7/24/3 63/26/3 60/25/3
f 8/23/3 64/22/3 63/26/3
f 16/27/4 28/188/4 27/28/4
f 5/30/5 17/189/5 18/31/5
f 7/33/4 20/190/4 19/34/4
f 8/36/6 19/191/6 17/37/6
f 13/39/3 14/45/3 18/40/3
f 13/39/3 17/41/3 19/42/3
f 16/44/3 20/46/3 18/40/3
f 15/43/3 19/42/3 20/46/3
f 22/47/6 38/192/6 40/48/6
f 15/50/6 27/193/6 25/51/6
f 14/53/2 26/194/2 28/54/2
f 13/56/5 25/195/5 26/57/5
f 29/59/7 30/196/7 26/60/7
f 29/62/8 25/197/8 27/63/8
f 32/65/9 28/198/9 26/66/9
f 31/68/10 27/199/10 28/69/10
f 34/71/11 30/200/11 29/72/11
f 33/74/12 29/201/12 31/75/12
f 34/77/13 36/202/13 32/78/13
f 35/80/14 31/203/14 32/81/14
f 21/83/1 22/88/1 34/84/1
f 23/86/1 21/83/1 33/85/1
f 22/88/1 24/90/1 36/89/1
f 24/90/1 23/86/1 35/87/1
f 37/91/3 39/204/3 40/92/3
f 21/94/4 37/205/4 38/95/4
f 24/97/5 40/206/5 39/98/5
f 23/100/2 39/98/2 37/101/2
f 4/103/6 1/107/6 57/104/6
f 9/106/6 59/117/6 57/104/6
f 3/108/2 61/114/2 58/109/2
f 2/110/2 58/109/2 60/111/2
f 12/113/2 63/118/2 61/114/2
f 4/103/6 62/105/6 64/115/6
f 11/116/6 64/115/6 59/117/6
f 10/112/2 60/111/2 63/118/2
f 54/119/2 55/207/2 53/120/2
f 51/122/6 49/208/6 50/123/6
f 2/125/1 52/209/1 53/126/1
f 4/128/1 50/210/1 49/129/1
f 10/131/3 12/211/3 55/132/3
f 11/134/4 56/212/4 50/135/4
f 10/137/5 54/213/5 52/138/5
f 1/140/5 49/129/5 51/141/5
f 44/143/5 58/149/5 57/144/5
f 41/145/5 57/144/5 59/146/5
f 46/148/5 60/157/5 58/149/5
f 42/150/4 62/156/4 61/151/4
f 45/152/4 61/151/4 63/153/4
f 48/155/4 64/158/4 62/156/4
f 43/147/5 59/146/5 60/157/5
f 47/154/4 63/153/4 64/158/4
f 67/159/5 68/214/5 66/160/5
f 71/162/4 72/215/4 70/163/4
f 42/165/6 70/216/6 72/166/6
f 45/167/1 69/217/1 70/168/1
f 43/170/6 67/218/6 65/171/6
f 43/173/3 46/219/3 68/174/3
f 47/176/2 71/220/2 69/177/2
f 44/179/2 66/221/2 68/180/2
