# Blender v2.78 (sub 0) OBJ File: ''
# www.blender.org
mtllib building4.mtl
o Cube
v 1.000000 -1.000000 -1.000000
v 1.000000 -1.000000 1.000000
v -1.000000 -1.000000 1.000000
v -1.000000 -1.000000 -1.000000
v 1.000000 1.000000 -0.999999
v 0.999999 1.000000 1.000001
v -1.000000 1.000000 1.000000
v -1.000000 1.000000 -1.000000
vt 0.3563 0.2362
vt 0.1063 0.5695
vt 0.1063 0.2362
vt 0.3465 0.6772
vt 0.0965 0.3438
vt 0.3465 0.3438
vt 0.6949 0.6037
vt 0.9449 0.2704
vt 0.9449 0.6037
vt 0.5177 0.5433
vt 0.7677 0.2100
vt 0.7677 0.5433
vt 0.8228 0.5433
vt 0.5728 0.2100
vt 0.8228 0.2100
vt 0.8839 0.2493
vt 0.6339 0.5827
vt 0.6339 0.2493
vt 0.3563 0.5695
vt 0.0965 0.6772
vt 0.6949 0.2704
vt 0.5177 0.2100
vt 0.5728 0.5433
vt 0.8839 0.5827
vn 0.0000 -1.0000 0.0000
vn 0.0000 1.0000 0.0000
vn 1.0000 -0.0000 0.0000
vn 0.0000 -0.0000 1.0000
vn -1.0000 -0.0000 -0.0000
vn 0.0000 0.0000 -1.0000
usemtl Material
s off
f 2/1/1 4/2/1 1/3/1
f 8/4/2 6/5/2 5/6/2
f 5/7/3 2/8/3 1/9/3
f 6/10/4 3/11/4 2/12/4
f 3/13/5 8/14/5 4/15/5
f 1/16/6 8/17/6 5/18/6
f 2/1/1 3/19/1 4/2/1
f 8/4/2 7/20/2 6/5/2
f 5/7/3 6/21/3 2/8/3
f 6/10/4 7/22/4 3/11/4
f 3/13/5 7/23/5 8/14/5
f 1/16/6 4/24/6 8/17/6
