# Blender v2.78 (sub 0) OBJ File: 'plunger.blend'
# www.blender.org
mtllib plunger.mtl
o Cylinder
v -2.739018 1.000000 0.000000
v 2.739018 1.000000 -0.000000
v -2.739018 0.980785 -0.195090
v 2.739018 0.980785 -0.195090
v -2.739018 0.923880 -0.382683
v 2.739018 0.923879 -0.382684
v -2.739018 0.831470 -0.555570
v 2.739018 0.831469 -0.555570
v -2.739018 0.707107 -0.707107
v 2.739018 0.707107 -0.707107
v -2.739018 0.555570 -0.831470
v 2.739018 0.555570 -0.831470
v -2.739018 0.382684 -0.923879
v 2.739018 0.382683 -0.923880
v -2.739018 0.195090 -0.980785
v 2.739018 0.195090 -0.980785
v -2.739018 0.000000 -1.000000
v 2.739018 -0.000000 -1.000000
v -2.739018 -0.195090 -0.980785
v 2.739018 -0.195090 -0.980785
v -2.739018 -0.382683 -0.923879
v 2.739018 -0.382683 -0.923880
v -2.739018 -0.555570 -0.831470
v 2.739018 -0.555570 -0.831470
v -2.739018 -0.707107 -0.707107
v 2.739018 -0.707107 -0.707107
v -2.739018 -0.831470 -0.555570
v 2.739018 -0.831470 -0.555570
v -2.739018 -0.923880 -0.382683
v 2.739018 -0.923880 -0.382683
v -2.739018 -0.980785 -0.195090
v 2.739018 -0.980785 -0.195090
v -2.739018 -1.000000 0.000000
v 2.739018 -1.000000 0.000000
v -2.739018 -0.980785 0.195091
v 2.739018 -0.980785 0.195091
v -2.739018 -0.923879 0.382684
v 2.739018 -0.923879 0.382684
v -2.739018 -0.831469 0.555571
v 2.739018 -0.831469 0.555571
v -2.739018 -0.707106 0.707107
v 2.739018 -0.707106 0.707107
v -2.739018 -0.555570 0.831470
v 2.739018 -0.555570 0.831470
v -2.739018 -0.382683 0.923880
v 2.739018 -0.382683 0.923880
v -2.739018 -0.195089 0.980786
v 2.739018 -0.195090 0.980785
v -2.739018 0.000001 1.000000
v 2.739018 0.000001 1.000000
v -2.739018 0.195091 0.980785
v 2.739018 0.195091 0.980785
v -2.739018 0.382685 0.923879
v 2.739018 0.382684 0.923879
v -2.739018 0.555571 0.831469
v 2.739018 0.555571 0.831469
v -2.739018 0.707108 0.707106
v 2.739018 0.707108 0.707106
v -2.739018 0.831470 0.555569
v 2.739018 0.831470 0.555569
v -2.739018 0.923880 0.382682
v 2.739018 0.923880 0.382682
v -2.739018 0.980786 0.195089
v 2.739018 0.980785 0.195089
vt 0.5955 0.3344
vt 0.5547 0.0000
vt 0.5955 0.0000
vt 0.5547 0.3344
vt 0.5147 0.0000
vt 0.4770 0.3344
vt 0.4770 0.0000
vt 0.4431 0.0000
vt 0.4431 0.3344
vt 0.4142 0.0000
vt 0.2640 0.6656
vt 0.2301 1.0000
vt 0.2301 0.6656
vt 0.1924 0.6656
vt 0.1924 1.0000
vt 0.1524 0.6656
vt 0.1524 1.0000
vt 0.1116 0.6656
vt 0.1116 1.0000
vt 0.0716 0.6656
vt 0.0716 1.0000
vt 0.0339 0.6656
vt 0.0339 1.0000
vt 0.0000 0.6656
vt 0.4142 0.3344
vt 0.4481 0.6688
vt 0.4142 0.6688
vt 0.4481 0.3344
vt 0.4858 0.6688
vt 0.4858 0.3344
vt 0.5258 0.6688
vt 0.5258 0.3344
vt 0.5666 0.6688
vt 0.5666 0.3344
vt 0.6066 0.6688
vt 0.6066 0.3344
vt 0.6443 0.6688
vt 0.6443 0.3344
vt 0.6783 0.6688
vt 0.6783 0.3344
vt 0.7071 0.6688
vt 0.7071 0.3344
vt 0.7410 0.6688
vt 0.7410 0.3344
vt 0.7787 0.6688
vt 0.7787 0.3344
vt 0.8187 0.6688
vt 0.8187 0.3344
vt 0.8595 0.6688
vt 0.8595 0.3344
vt 0.8995 0.6688
vt 0.9372 0.3344
vt 0.9372 0.6688
vt 0.9712 0.6688
vt 0.9712 0.3344
vt 1.0000 0.6688
vt 0.7360 0.3344
vt 0.7071 0.0000
vt 0.7360 0.0000
vt 0.7071 0.3344
vt 0.6732 0.0000
vt 0.1867 0.3328
vt 0.4142 0.4828
vt 0.2275 0.6656
vt 0.6732 0.3344
vt 0.6355 0.0000
vt 0.6355 0.3344
vt 0.4063 0.1179
vt 0.2675 0.3264
vt 0.1467 0.0064
vt 0.5147 0.3344
vt 0.4142 0.3344
vt 0.2640 1.0000
vt 0.0000 1.0000
vt 0.8995 0.3344
vt 1.0000 0.3344
vt 0.1867 0.6656
vt 0.1467 0.6592
vt 0.1090 0.6467
vt 0.0751 0.6284
vt 0.0462 0.6053
vt 0.0236 0.5780
vt 0.0080 0.5477
vt 0.0000 0.5156
vt 0.0000 0.4828
vt 0.0080 0.4507
vt 0.0236 0.4204
vt 0.0462 0.3931
vt 0.0751 0.3699
vt 0.1090 0.3517
vt 0.1467 0.3392
vt 0.2275 0.3328
vt 0.2675 0.3392
vt 0.3052 0.3517
vt 0.3391 0.3699
vt 0.3680 0.3931
vt 0.3906 0.4204
vt 0.4063 0.4507
vt 0.4142 0.5156
vt 0.4063 0.5477
vt 0.3906 0.5780
vt 0.3680 0.6053
vt 0.3391 0.6284
vt 0.3052 0.6467
vt 0.2675 0.6592
vt 0.0080 0.2149
vt 0.0000 0.1828
vt 0.0000 0.1500
vt 0.0080 0.1179
vt 0.0236 0.0876
vt 0.0462 0.0603
vt 0.0751 0.0371
vt 0.1090 0.0189
vt 0.1867 0.0000
vt 0.2275 0.0000
vt 0.2675 0.0064
vt 0.3052 0.0189
vt 0.3391 0.0371
vt 0.3680 0.0603
vt 0.3906 0.0876
vt 0.4142 0.1500
vt 0.3906 0.2452
vt 0.4142 0.1828
vt 0.4063 0.2149
vt 0.3680 0.2725
vt 0.3391 0.2956
vt 0.3052 0.3139
vt 0.2275 0.3328
vt 0.1867 0.3328
vt 0.1467 0.3264
vt 0.1090 0.3139
vt 0.0751 0.2956
vt 0.0462 0.2725
vt 0.0236 0.2452
vn 0.0000 0.9952 -0.0980
vn 0.0000 0.9569 -0.2903
vn 0.0000 0.8819 -0.4714
vn 0.0000 0.7730 -0.6344
vn -0.0000 0.6344 -0.7730
vn -0.0000 0.4714 -0.8819
vn -0.0000 0.2903 -0.9569
vn -0.0000 0.0980 -0.9952
vn -0.0000 -0.0980 -0.9952
vn -0.0000 -0.2903 -0.9569
vn -0.0000 -0.4714 -0.8819
vn -0.0000 -0.6344 -0.7730
vn -0.0000 -0.7730 -0.6344
vn -0.0000 -0.8819 -0.4714
vn -0.0000 -0.9569 -0.2903
vn -0.0000 -0.9952 -0.0980
vn -0.0000 -0.9952 0.0980
vn -0.0000 -0.9569 0.2903
vn -0.0000 -0.8819 0.4714
vn 0.0000 -0.7730 0.6344
vn 0.0000 -0.6344 0.7730
vn 0.0000 -0.4714 0.8819
vn 0.0000 -0.2903 0.9569
vn 0.0000 -0.0980 0.9952
vn 0.0000 0.0980 0.9952
vn 0.0000 0.2903 0.9569
vn 0.0000 0.4714 0.8819
vn 0.0000 0.6344 0.7730
vn 0.0000 0.7730 0.6344
vn 0.0000 0.8819 0.4714
vn 1.0000 -0.0000 0.0000
vn 0.0000 0.9569 0.2903
vn 0.0000 0.9952 0.0980
vn -1.0000 0.0000 0.0000
usemtl None
s off
f 2/1/1 3/2/1 1/3/1
f 4/4/2 5/5/2 3/2/2
f 5/5/3 8/6/3 7/7/3
f 8/6/4 9/8/4 7/7/4
f 10/9/5 11/10/5 9/8/5
f 11/11/6 14/12/6 13/13/6
f 14/12/7 15/14/7 13/13/7
f 16/15/8 17/16/8 15/14/8
f 18/17/9 19/18/9 17/16/9
f 20/19/10 21/20/10 19/18/10
f 22/21/11 23/22/11 21/20/11
f 24/23/12 25/24/12 23/22/12
f 26/25/13 27/26/13 25/27/13
f 28/28/14 29/29/14 27/26/14
f 30/30/15 31/31/15 29/29/15
f 32/32/16 33/33/16 31/31/16
f 34/34/17 35/35/17 33/33/17
f 36/36/18 37/37/18 35/35/18
f 38/38/19 39/39/19 37/37/19
f 40/40/20 41/41/20 39/39/20
f 42/42/21 43/43/21 41/41/21
f 44/44/22 45/45/22 43/43/22
f 46/46/23 47/47/23 45/45/23
f 48/48/24 49/49/24 47/47/24
f 50/50/25 51/51/25 49/49/25
f 51/51/26 54/52/26 53/53/26
f 54/52/27 55/54/27 53/53/27
f 56/55/28 57/56/28 55/54/28
f 58/57/29 59/58/29 57/59/29
f 60/60/30 61/61/30 59/58/30
f 38/62/31 22/63/31 6/64/31
f 62/65/32 63/66/32 61/61/32
f 64/67/33 1/3/33 63/66/33
f 31/68/34 47/69/34 15/70/34
f 2/1/1 4/4/1 3/2/1
f 4/4/2 6/71/2 5/5/2
f 5/5/3 6/71/3 8/6/3
f 8/6/4 10/9/4 9/8/4
f 10/9/5 12/72/5 11/10/5
f 11/11/6 12/73/6 14/12/6
f 14/12/7 16/15/7 15/14/7
f 16/15/8 18/17/8 17/16/8
f 18/17/9 20/19/9 19/18/9
f 20/19/10 22/21/10 21/20/10
f 22/21/11 24/23/11 23/22/11
f 24/23/12 26/74/12 25/24/12
f 26/25/13 28/28/13 27/26/13
f 28/28/14 30/30/14 29/29/14
f 30/30/15 32/32/15 31/31/15
f 32/32/16 34/34/16 33/33/16
f 34/34/17 36/36/17 35/35/17
f 36/36/18 38/38/18 37/37/18
f 38/38/19 40/40/19 39/39/19
f 40/40/20 42/42/20 41/41/20
f 42/42/21 44/44/21 43/43/21
f 44/44/22 46/46/22 45/45/22
f 46/46/23 48/48/23 47/47/23
f 48/48/24 50/50/24 49/49/24
f 50/50/25 52/75/25 51/51/25
f 51/51/26 52/75/26 54/52/26
f 54/52/27 56/55/27 55/54/27
f 56/55/28 58/76/28 57/56/28
f 58/57/29 60/60/29 59/58/29
f 60/60/30 62/65/30 61/61/30
f 6/64/31 4/77/31 2/78/31
f 2/78/31 64/79/31 6/64/31
f 62/80/31 60/81/31 58/82/31
f 58/82/31 56/83/31 54/84/31
f 54/84/31 52/85/31 50/86/31
f 50/86/31 48/87/31 54/84/31
f 46/88/31 44/89/31 42/90/31
f 42/90/31 40/91/31 46/88/31
f 38/62/31 36/92/31 34/93/31
f 34/93/31 32/94/31 38/62/31
f 30/95/31 28/96/31 22/63/31
f 26/97/31 24/98/31 22/63/31
f 22/63/31 20/99/31 18/100/31
f 18/100/31 16/101/31 14/102/31
f 14/102/31 12/103/31 10/104/31
f 10/104/31 8/105/31 6/64/31
f 6/64/31 64/79/31 62/80/31
f 62/80/31 58/82/31 6/64/31
f 54/84/31 48/87/31 46/88/31
f 46/88/31 40/91/31 38/62/31
f 38/62/31 32/94/31 30/95/31
f 28/96/31 26/97/31 22/63/31
f 22/63/31 18/100/31 14/102/31
f 14/102/31 10/104/31 22/63/31
f 6/64/31 58/82/31 54/84/31
f 54/84/31 46/88/31 38/62/31
f 38/62/31 30/95/31 22/63/31
f 22/63/31 10/104/31 6/64/31
f 6/64/31 54/84/31 38/62/31
f 62/65/32 64/67/32 63/66/32
f 64/67/33 2/1/33 1/3/33
f 63/106/34 1/107/34 3/108/34
f 3/108/34 5/109/34 7/110/34
f 7/110/34 9/111/34 11/112/34
f 11/112/34 13/113/34 7/110/34
f 15/70/34 17/114/34 19/115/34
f 19/115/34 21/116/34 23/117/34
f 23/117/34 25/118/34 31/68/34
f 27/119/34 29/120/34 31/68/34
f 31/68/34 33/121/34 39/122/34
f 35/123/34 37/124/34 39/122/34
f 39/122/34 41/125/34 43/126/34
f 43/126/34 45/127/34 47/69/34
f 47/69/34 49/128/34 51/129/34
f 51/129/34 53/130/34 55/131/34
f 55/131/34 57/132/34 63/106/34
f 59/133/34 61/134/34 63/106/34
f 63/106/34 3/108/34 15/70/34
f 7/110/34 13/113/34 15/70/34
f 15/70/34 19/115/34 31/68/34
f 25/118/34 27/119/34 31/68/34
f 33/121/34 35/123/34 39/122/34
f 39/122/34 43/126/34 47/69/34
f 47/69/34 51/129/34 63/106/34
f 57/132/34 59/133/34 63/106/34
f 3/108/34 7/110/34 15/70/34
f 19/115/34 23/117/34 31/68/34
f 31/68/34 39/122/34 47/69/34
f 51/129/34 55/131/34 63/106/34
f 63/106/34 15/70/34 47/69/34
