# Blender v2.78 (sub 0) OBJ File: 'plunger.blend'
# www.blender.org
mtllib plunger.mtl
o Cylinder
v 0.000000 1.000000 -2.739018
v 0.000000 1.000000 2.739018
v 0.195090 0.980785 -2.739018
v 0.195090 0.980785 2.739018
v 0.382683 0.923880 -2.739018
v 0.382683 0.923879 2.739018
v 0.555570 0.831470 -2.739018
v 0.555570 0.831469 2.739018
v 0.707107 0.707107 -2.739018
v 0.707107 0.707107 2.739018
v 0.831470 0.555570 -2.739018
v 0.831470 0.555570 2.739018
v 0.923880 0.382684 -2.739018
v 0.923880 0.382683 2.739018
v 0.980785 0.195090 -2.739018
v 0.980785 0.195090 2.739018
v 1.000000 0.000000 -2.739018
v 1.000000 -0.000000 2.739018
v 0.980785 -0.195090 -2.739018
v 0.980785 -0.195090 2.739018
v 0.923880 -0.382683 -2.739018
v 0.923880 -0.382683 2.739018
v 0.831470 -0.555570 -2.739018
v 0.831470 -0.555570 2.739018
v 0.707107 -0.707107 -2.739018
v 0.707107 -0.707107 2.739018
v 0.555570 -0.831470 -2.739018
v 0.555570 -0.831470 2.739018
v 0.382683 -0.923880 -2.739018
v 0.382683 -0.923880 2.739018
v 0.195090 -0.980785 -2.739018
v 0.195090 -0.980785 2.739018
v -0.000000 -1.000000 -2.739018
v -0.000000 -1.000000 2.739018
v -0.195091 -0.980785 -2.739018
v -0.195091 -0.980785 2.739018
v -0.382684 -0.923879 -2.739018
v -0.382684 -0.923879 2.739018
v -0.555571 -0.831469 -2.739018
v -0.555571 -0.831469 2.739018
v -0.707107 -0.707106 -2.739018
v -0.707107 -0.707106 2.739018
v -0.831470 -0.555570 -2.739018
v -0.831470 -0.555570 2.739018
v -0.923880 -0.382683 -2.739018
v -0.923880 -0.382683 2.739018
v -0.980785 -0.195089 -2.739018
v -0.980785 -0.195090 2.739018
v -1.000000 0.000001 -2.739018
v -1.000000 0.000001 2.739018
v -0.980785 0.195091 -2.739018
v -0.980785 0.195091 2.739018
v -0.923879 0.382685 -2.739018
v -0.923879 0.382684 2.739018
v -0.831469 0.555571 -2.739018
v -0.831469 0.555571 2.739018
v -0.707106 0.707108 -2.739018
v -0.707106 0.707108 2.739018
v -0.555569 0.831470 -2.739018
v -0.555569 0.831470 2.739018
v -0.382682 0.923880 -2.739018
v -0.382682 0.923880 2.739018
v -0.195089 0.980786 -2.739018
v -0.195089 0.980785 2.739018
vt 0.5955 0.3344
vt 0.5547 0.0000
vt 0.5955 0.0000
vt 0.5547 0.3344
vt 0.5147 0.0000
vt 0.5147 0.3344
vt 0.4770 0.0000
vt 0.4770 0.3344
vt 0.4431 0.0000
vt 0.4431 0.3344
vt 0.4142 0.0000
vt 0.2640 1.0000
vt 0.2301 0.6656
vt 0.2640 0.6656
vt 0.2301 1.0000
vt 0.1924 0.6656
vt 0.1924 1.0000
vt 0.1524 0.6656
vt 0.1524 1.0000
vt 0.1116 0.6656
vt 0.1116 1.0000
vt 0.0716 0.6656
vt 0.0716 1.0000
vt 0.0339 0.6656
vt 0.0339 1.0000
vt 0.0000 0.6656
vt 0.4142 0.3344
vt 0.4481 0.6688
vt 0.4142 0.6688
vt 0.4481 0.3344
vt 0.4858 0.6688
vt 0.4858 0.3344
vt 0.5258 0.6688
vt 0.5258 0.3344
vt 0.5666 0.6688
vt 0.5666 0.3344
vt 0.6066 0.6688
vt 0.6066 0.3344
vt 0.6443 0.6688
vt 0.6443 0.3344
vt 0.6783 0.6688
vt 0.6783 0.3344
vt 0.7071 0.6688
vt 0.7071 0.3344
vt 0.7410 0.6688
vt 0.7410 0.3344
vt 0.7787 0.6688
vt 0.8187 0.3344
vt 0.8187 0.6688
vt 0.8595 0.6688
vt 0.8595 0.3344
vt 0.8995 0.6688
vt 0.8995 0.3344
vt 0.9372 0.6688
vt 0.9372 0.3344
vt 0.9712 0.6688
vt 0.9712 0.3344
vt 1.0000 0.6688
vt 0.7360 0.3344
vt 0.7071 0.0000
vt 0.7360 0.0000
vt 0.7071 0.3344
vt 0.6732 0.0000
vt 0.1867 0.3328
vt 0.4142 0.4828
vt 0.0000 0.5156
vt 0.6732 0.3344
vt 0.6355 0.0000
vt 0.6355 0.3344
vt 0.4063 0.1179
vt 0.2675 0.3264
vt 0.1467 0.0064
vt 0.4142 0.3344
vt 0.0000 1.0000
vt 0.7787 0.3344
vt 1.0000 0.3344
vt 0.2275 0.6656
vt 0.1867 0.6656
vt 0.1467 0.6592
vt 0.1090 0.6467
vt 0.0751 0.6284
vt 0.0462 0.6053
vt 0.0236 0.5780
vt 0.0080 0.5477
vt 0.0000 0.4828
vt 0.0080 0.4507
vt 0.0236 0.4204
vt 0.0462 0.3931
vt 0.0751 0.3699
vt 0.1090 0.3517
vt 0.1467 0.3392
vt 0.2275 0.3328
vt 0.2675 0.3392
vt 0.3052 0.3517
vt 0.3391 0.3699
vt 0.3680 0.3931
vt 0.3906 0.4204
vt 0.4063 0.4507
vt 0.4142 0.5156
vt 0.4063 0.5477
vt 0.3906 0.5780
vt 0.3680 0.6053
vt 0.3391 0.6284
vt 0.3052 0.6467
vt 0.2675 0.6592
vt 0.0080 0.2149
vt 0.0000 0.1828
vt 0.0000 0.1500
vt 0.0080 0.1179
vt 0.0236 0.0876
vt 0.0462 0.0603
vt 0.0751 0.0371
vt 0.1090 0.0189
vt 0.1867 0.0000
vt 0.2275 0.0000
vt 0.2675 0.0064
vt 0.3052 0.0189
vt 0.3391 0.0371
vt 0.3680 0.0603
vt 0.3906 0.0876
vt 0.4142 0.1500
vt 0.4142 0.1828
vt 0.4063 0.2149
vt 0.3906 0.2452
vt 0.3680 0.2725
vt 0.3391 0.2956
vt 0.3052 0.3139
vt 0.2275 0.3328
vt 0.1867 0.3328
vt 0.1467 0.3264
vt 0.1090 0.3139
vt 0.0751 0.2956
vt 0.0462 0.2725
vt 0.0236 0.2452
vn 0.0980 0.9952 0.0000
vn 0.2903 0.9569 0.0000
vn 0.4714 0.8819 0.0000
vn 0.6344 0.7730 0.0000
vn 0.7730 0.6344 0.0000
vn 0.8819 0.4714 0.0000
vn 0.9569 0.2903 0.0000
vn 0.9952 0.0980 0.0000
vn 0.9952 -0.0980 -0.0000
vn 0.9569 -0.2903 -0.0000
vn 0.8819 -0.4714 -0.0000
vn 0.7730 -0.6344 -0.0000
vn 0.6344 -0.7730 -0.0000
vn 0.4714 -0.8819 -0.0000
vn 0.2903 -0.9569 -0.0000
vn 0.0980 -0.9952 -0.0000
vn -0.0980 -0.9952 -0.0000
vn -0.2903 -0.9569 -0.0000
vn -0.4714 -0.8819 -0.0000
vn -0.6344 -0.7730 -0.0000
vn -0.7730 -0.6344 -0.0000
vn -0.8819 -0.4714 -0.0000
vn -0.9569 -0.2903 -0.0000
vn -0.9952 -0.0980 -0.0000
vn -0.9952 0.0980 0.0000
vn -0.9569 0.2903 0.0000
vn -0.8819 0.4714 0.0000
vn -0.7730 0.6344 0.0000
vn -0.6344 0.7730 0.0000
vn -0.4714 0.8819 0.0000
vn 0.0000 0.0000 1.0000
vn -0.2903 0.9569 0.0000
vn -0.0980 0.9952 0.0000
vn -0.0000 0.0000 -1.0000
usemtl None
s off
f 2/1/1 3/2/1 1/3/1
f 4/4/2 5/5/2 3/2/2
f 6/6/3 7/7/3 5/5/3
f 8/8/4 9/9/4 7/7/4
f 10/10/5 11/11/5 9/9/5
f 12/12/6 13/13/6 11/14/6
f 14/15/7 15/16/7 13/13/7
f 16/17/8 17/18/8 15/16/8
f 18/19/9 19/20/9 17/18/9
f 20/21/10 21/22/10 19/20/10
f 22/23/11 23/24/11 21/22/11
f 24/25/12 25/26/12 23/24/12
f 26/27/13 27/28/13 25/29/13
f 28/30/14 29/31/14 27/28/14
f 30/32/15 31/33/15 29/31/15
f 32/34/16 33/35/16 31/33/16
f 34/36/17 35/37/17 33/35/17
f 36/38/18 37/39/18 35/37/18
f 38/40/19 39/41/19 37/39/19
f 40/42/20 41/43/20 39/41/20
f 42/44/21 43/45/21 41/43/21
f 44/46/22 45/47/22 43/45/22
f 45/47/23 48/48/23 47/49/23
f 48/48/24 49/50/24 47/49/24
f 50/51/25 51/52/25 49/50/25
f 52/53/26 53/54/26 51/52/26
f 54/55/27 55/56/27 53/54/27
f 56/57/28 57/58/28 55/56/28
f 58/59/29 59/60/29 57/61/29
f 60/62/30 61/63/30 59/60/30
f 38/64/31 22/65/31 54/66/31
f 62/67/32 63/68/32 61/63/32
f 64/69/33 1/3/33 63/68/33
f 31/70/34 47/71/34 15/72/34
f 2/1/1 4/4/1 3/2/1
f 4/4/2 6/6/2 5/5/2
f 6/6/3 8/8/3 7/7/3
f 8/8/4 10/10/4 9/9/4
f 10/10/5 12/73/5 11/11/5
f 12/12/6 14/15/6 13/13/6
f 14/15/7 16/17/7 15/16/7
f 16/17/8 18/19/8 17/18/8
f 18/19/9 20/21/9 19/20/9
f 20/21/10 22/23/10 21/22/10
f 22/23/11 24/25/11 23/24/11
f 24/25/12 26/74/12 25/26/12
f 26/27/13 28/30/13 27/28/13
f 28/30/14 30/32/14 29/31/14
f 30/32/15 32/34/15 31/33/15
f 32/34/16 34/36/16 33/35/16
f 34/36/17 36/38/17 35/37/17
f 36/38/18 38/40/18 37/39/18
f 38/40/19 40/42/19 39/41/19
f 40/42/20 42/44/20 41/43/20
f 42/44/21 44/46/21 43/45/21
f 44/46/22 46/75/22 45/47/22
f 45/47/23 46/75/23 48/48/23
f 48/48/24 50/51/24 49/50/24
f 50/51/25 52/53/25 51/52/25
f 52/53/26 54/55/26 53/54/26
f 54/55/27 56/57/27 55/56/27
f 56/57/28 58/76/28 57/58/28
f 58/59/29 60/62/29 59/60/29
f 60/62/30 62/67/30 61/63/30
f 6/77/31 4/78/31 2/79/31
f 2/79/31 64/80/31 6/77/31
f 62/81/31 60/82/31 58/83/31
f 58/83/31 56/84/31 54/66/31
f 54/66/31 52/85/31 50/86/31
f 50/86/31 48/87/31 54/66/31
f 46/88/31 44/89/31 38/64/31
f 42/90/31 40/91/31 38/64/31
f 38/64/31 36/92/31 34/93/31
f 34/93/31 32/94/31 30/95/31
f 30/95/31 28/96/31 26/97/31
f 26/97/31 24/98/31 22/65/31
f 22/65/31 20/99/31 18/100/31
f 18/100/31 16/101/31 22/65/31
f 14/102/31 12/103/31 10/104/31
f 10/104/31 8/105/31 6/77/31
f 6/77/31 64/80/31 62/81/31
f 62/81/31 58/83/31 6/77/31
f 54/66/31 48/87/31 46/88/31
f 44/89/31 42/90/31 38/64/31
f 38/64/31 34/93/31 22/65/31
f 30/95/31 26/97/31 22/65/31
f 22/65/31 16/101/31 14/102/31
f 14/102/31 10/104/31 22/65/31
f 6/77/31 58/83/31 54/66/31
f 54/66/31 46/88/31 38/64/31
f 34/93/31 30/95/31 22/65/31
f 22/65/31 10/104/31 6/77/31
f 6/77/31 54/66/31 22/65/31
f 62/67/32 64/69/32 63/68/32
f 64/69/33 2/1/33 1/3/33
f 63/106/34 1/107/34 3/108/34
f 3/108/34 5/109/34 7/110/34
f 7/110/34 9/111/34 11/112/34
f 11/112/34 13/113/34 7/110/34
f 15/72/34 17/114/34 19/115/34
f 19/115/34 21/116/34 15/72/34
f 23/117/34 25/118/34 31/70/34
f 27/119/34 29/120/34 31/70/34
f 31/70/34 33/121/34 35/122/34
f 35/122/34 37/123/34 39/124/34
f 39/124/34 41/125/34 43/126/34
f 43/126/34 45/127/34 47/71/34
f 47/71/34 49/128/34 51/129/34
f 51/129/34 53/130/34 55/131/34
f 55/131/34 57/132/34 63/106/34
f 59/133/34 61/134/34 63/106/34
f 63/106/34 3/108/34 15/72/34
f 7/110/34 13/113/34 15/72/34
f 15/72/34 21/116/34 23/117/34
f 25/118/34 27/119/34 31/70/34
f 31/70/34 35/122/34 47/71/34
f 39/124/34 43/126/34 47/71/34
f 47/71/34 51/129/34 63/106/34
f 57/132/34 59/133/34 63/106/34
f 3/108/34 7/110/34 15/72/34
f 15/72/34 23/117/34 31/70/34
f 35/122/34 39/124/34 47/71/34
f 51/129/34 55/131/34 63/106/34
f 63/106/34 15/72/34 47/71/34
