# Blender v2.78 (sub 0) OBJ File: 'Ship.blend'
# www.blender.org
mtllib sail2.mtl
o Sail2_Cylinder
v -1.924980 6.135137 1.863378
v 1.741963 1.608019 -1.803566
v -1.928250 6.128627 1.867832
v 1.738693 1.601509 -1.799111
v -1.930212 6.122367 1.873299
v 1.736731 1.595249 -1.793644
v -1.930788 6.116598 1.879568
v 1.736155 1.589480 -1.787375
v -1.929958 6.111541 1.886399
v 1.736985 1.584424 -1.780544
v -1.927753 6.107391 1.893528
v 1.739190 1.580274 -1.773415
v -1.924257 6.104308 1.900683
v 1.742686 1.577190 -1.766260
v -1.919606 6.102409 1.907588
v 1.747337 1.575291 -1.759355
v -1.913977 6.101768 1.913977
v 1.752966 1.574650 -1.752966
v -1.907588 6.102409 1.919606
v 1.759355 1.575291 -1.747337
v -1.900683 6.104308 1.924257
v 1.766260 1.577190 -1.742686
v -1.893528 6.107391 1.927753
v 1.773415 1.580274 -1.739190
v -1.886399 6.111541 1.929958
v 1.780544 1.584424 -1.736985
v -1.879568 6.116598 1.930788
v 1.787375 1.589480 -1.736155
v -1.873299 6.122367 1.930212
v 1.793644 1.595249 -1.736731
v -1.867832 6.128627 1.928250
v 1.799111 1.601509 -1.738693
v -1.863378 6.135137 1.924980
v 1.803566 1.608019 -1.741963
v -1.860107 6.141646 1.920525
v 1.806836 1.614528 -1.746418
v -1.858146 6.147906 1.915059
v 1.808798 1.620788 -1.751884
v -1.857569 6.153675 1.908789
v 1.809374 1.626557 -1.758154
v -1.858399 6.158731 1.901959
v 1.808544 1.631614 -1.764984
v -1.860605 6.162881 1.894829
v 1.806339 1.635763 -1.772114
v -1.864100 6.165965 1.887674
v 1.802843 1.638847 -1.779269
v -1.868752 6.167864 1.880769
v 1.798192 1.640746 -1.786174
v -1.874380 6.168505 1.874380
v 1.792563 1.641387 -1.792563
v -1.880769 6.167864 1.868752
v 1.786174 1.640746 -1.798192
v -1.887674 6.165965 1.864100
v 1.779269 1.638847 -1.802843
v -1.894829 6.162881 1.860605
v 1.772114 1.635763 -1.806339
v -1.901959 6.158731 1.858399
v 1.764984 1.631614 -1.808544
v -1.908789 6.153675 1.857569
v 1.758154 1.626557 -1.809374
v -1.915059 6.147906 1.858146
v 1.751884 1.620788 -1.808798
v -1.920526 6.141646 1.860107
v 1.746418 1.614528 -1.806836
v -0.030801 3.973893 -0.030801
v -0.034072 3.967383 -0.026347
v -0.036033 3.961123 -0.020880
v -0.036610 3.955354 -0.014611
v -0.035779 3.950298 -0.007780
v -0.033574 3.946148 -0.000650
v -0.030079 3.943064 0.006504
v -0.025427 3.941166 0.013409
v -0.019799 3.940525 0.019799
v -0.013409 3.941166 0.025427
v -0.006504 3.943064 0.030079
v 0.000650 3.946148 0.033574
v 0.007780 3.950298 0.035779
v 0.014611 3.955354 0.036610
v 0.020880 3.961123 0.036033
v 0.026347 3.967383 0.034072
v 0.030801 3.973893 0.030801
v 0.034072 3.980403 0.026347
v 0.036033 3.986662 0.020880
v 0.036610 3.992431 0.014611
v 0.035779 3.997488 0.007780
v 0.033574 4.001638 0.000650
v 0.030079 4.004721 -0.006504
v 0.025427 4.006620 -0.013409
v 0.019799 4.007261 -0.019799
v 0.013409 4.006620 -0.025427
v 0.006504 4.004721 -0.030079
v -0.000650 4.001638 -0.033574
v -0.007780 3.997488 -0.035779
v -0.014611 3.992431 -0.036610
v -0.020880 3.986662 -0.036033
v -0.026347 3.980403 -0.034072
vt 0.7251 0.1093
vt 0.1780 0.1347
vt 0.1550 0.1263
vt 0.1116 0.4401
vt 0.6610 0.4279
vt 0.6833 0.4401
vt 0.0893 0.4279
vt 0.6404 0.4082
vt 0.0688 0.4082
vt 0.6224 0.3816
vt 0.0508 0.3816
vt 0.6076 0.3492
vt 0.0360 0.3492
vt 0.5967 0.3122
vt 0.0250 0.3122
vt 0.5899 0.2721
vt 0.0183 0.2721
vt 0.5876 0.2304
vt 0.0183 0.1887
vt 0.5899 0.1887
vt 0.0250 0.1486
vt 0.5967 0.1486
vt 0.0360 0.1116
vt 0.6076 0.1116
vt 0.0508 0.0792
vt 0.6224 0.0792
vt 0.0688 0.0527
vt 0.6404 0.0527
vt 0.0893 0.0329
vt 0.6610 0.0329
vt 0.1116 0.0207
vt 0.6833 0.0207
vt 0.6627 0.1536
vt 0.1159 0.1285
vt 0.6860 0.1458
vt 0.1389 0.1201
vt 0.7090 0.1374
vt 0.1187 0.0288
vt 0.6680 0.0447
vt 0.0963 0.0408
vt 0.6474 0.0643
vt 0.0758 0.0604
vt 0.6293 0.0908
vt 0.0577 0.0868
vt 0.6145 0.1231
vt 0.0428 0.1191
vt 0.6034 0.1600
vt 0.0318 0.1560
vt 0.5966 0.2000
vt 0.0249 0.1961
vt 0.5942 0.2417
vt 0.0225 0.2378
vt 0.5964 0.2835
vt 0.0247 0.2795
vt 0.0314 0.3197
vt 0.6030 0.3236
vt 0.0423 0.3567
vt 0.6139 0.3607
vt 0.0570 0.3892
vt 0.6287 0.3932
vt 0.0750 0.4159
vt 0.6466 0.4199
vt 0.0955 0.4358
vt 0.7589 0.0453
vt 0.8230 0.1615
vt 0.7580 0.4404
vt 0.6671 0.4398
vt 0.1177 0.4481
vt 0.7018 0.1015
vt 0.1317 0.1185
vt 0.7087 0.0275
vt 0.8115 0.3759
vt 0.7311 0.4530
vt 0.2892 0.3910
vt 0.3125 0.3988
vt 0.2665 0.3841
vt 0.2451 0.3783
vt 0.1089 0.1116
vt 0.2261 0.3740
vt 0.0876 0.1058
vt 0.9513 0.4332
vt 0.7950 0.4055
vt 0.8245 0.3410
vt 0.9678 0.4036
vt 0.8335 0.3023
vt 0.9808 0.3687
vt 0.9944 0.2889
vt 0.8381 0.2612
vt 0.9945 0.2470
vt 0.8382 0.2193
vt 0.9901 0.2059
vt 0.8338 0.1782
vt 0.9813 0.1672
vt 0.8249 0.1395
vt 0.9684 0.1324
vt 0.8121 0.1047
vt 0.9520 0.1027
vt 0.7957 0.0750
vt 0.7307 0.1287
vt 0.5928 0.3925
vt 0.5731 0.4011
vt 0.5514 0.4098
vt 0.5284 0.4182
vt 0.5051 0.4260
vt 0.6399 0.1606
vt 0.4823 0.4330
vt 0.6186 0.1663
vt 0.4610 0.4387
vt 0.5995 0.1706
vt 0.4419 0.4430
vt 0.7860 0.3678
vt 0.6436 0.4002
vt 0.6289 0.3678
vt 0.7750 0.3309
vt 0.6179 0.3309
vt 0.7682 0.2908
vt 0.6111 0.2908
vt 0.7659 0.2490
vt 0.6088 0.2490
vt 0.6111 0.2073
vt 0.6179 0.1672
vt 0.7682 0.2073
vt 0.6289 0.1303
vt 0.7750 0.1672
vt 0.6436 0.0979
vt 0.7860 0.1303
vt 0.6616 0.0713
vt 0.8007 0.0979
vt 0.3573 0.4160
vt 0.2194 0.1521
vt 0.3770 0.4246
vt 0.3355 0.4072
vt 0.1997 0.1435
vt 0.7480 0.1177
vt 0.0160 0.2304
vt 0.0926 0.1363
vt 0.6903 0.0327
vt 0.7357 0.4524
vt 0.7125 0.4564
vt 0.6894 0.4521
vt 0.7135 0.0288
vt 0.7367 0.0330
vt 0.7794 0.0652
vt 0.7974 0.0920
vt 0.8121 0.1245
vt 0.8297 0.2016
vt 0.8226 0.3251
vt 0.8318 0.2434
vt 0.8295 0.2851
vt 0.8116 0.3620
vt 0.7967 0.3943
vt 0.7786 0.4208
vt 0.7078 0.4530
vt 0.6850 0.4448
vt 0.6635 0.4288
vt 0.6442 0.4055
vt 0.6277 0.3759
vt 0.6149 0.3410
vt 0.6060 0.3023
vt 0.6016 0.2612
vt 0.6017 0.2193
vt 0.6063 0.1782
vt 0.6153 0.1395
vt 0.6283 0.1047
vt 0.6449 0.0750
vt 0.6643 0.0518
vt 0.6858 0.0357
vt 0.7320 0.0275
vt 0.7549 0.0357
vt 0.7763 0.0518
vt 0.7755 0.4288
vt 0.7540 0.4448
vt 0.0685 0.1015
vt 0.9898 0.3300
vt 0.7504 0.1201
vt 0.8007 0.4002
vt 0.8187 0.0713
vn -0.7513 -0.0714 -0.6560
vn -0.8177 -0.2115 -0.5354
vn -0.8525 -0.3433 -0.3943
vn -0.8544 -0.4618 -0.2380
vn -0.8235 -0.5626 -0.0727
vn -0.7611 -0.6417 0.0953
vn -0.6694 -0.6961 0.2596
vn -0.5522 -0.7238 0.4138
vn -0.4138 -0.7238 0.5522
vn -0.2595 -0.6961 0.6694
vn -0.0953 -0.6416 0.7611
vn 0.0727 -0.5626 0.8235
vn 0.2380 -0.4618 0.8544
vn 0.3943 -0.3433 0.8524
vn 0.5355 -0.2115 0.8176
vn 0.6560 -0.0714 0.7514
vn 0.7513 0.0714 0.6561
vn 0.8177 0.2115 0.5355
vn 0.8524 0.3433 0.3943
vn 0.8544 0.4619 0.2381
vn 0.8235 0.5626 0.0728
vn 0.7610 0.6417 -0.0953
vn 0.6694 0.6961 -0.2595
vn 0.5521 0.7238 -0.4138
vn 0.4138 0.7238 -0.5522
vn 0.2595 0.6960 -0.6695
vn 0.0953 0.6417 -0.7610
vn -0.0727 0.5626 -0.8235
vn -0.2380 0.4619 -0.8544
vn -0.3943 0.3433 -0.8525
vn 0.5417 -0.6428 -0.5417
vn -0.5355 0.2114 -0.8177
vn -0.6560 0.0714 -0.7513
vn -0.5417 0.6428 0.5417
vn -0.6602 0.0763 -0.7472
vn -0.5477 0.2260 -0.8056
vn -0.4143 0.3669 -0.8329
vn -0.2648 0.4938 -0.8283
vn -0.1053 0.6017 -0.7918
vn 0.0583 0.6864 -0.7249
vn 0.2197 0.7448 -0.6301
vn 0.3726 0.7745 -0.5111
vn 0.5111 0.7745 -0.3726
vn 0.6301 0.7448 -0.2197
vn 0.7249 0.6864 -0.0583
vn 0.7918 0.6017 0.1053
vn 0.8283 0.4938 0.2649
vn 0.8329 0.3670 0.4142
vn 0.8056 0.2260 0.5477
vn 0.7472 0.0763 0.6602
vn 0.6602 -0.0763 0.7472
vn 0.5477 -0.2260 0.8056
vn 0.4142 -0.3669 0.8329
vn 0.2649 -0.4937 0.8283
vn 0.1053 -0.6016 0.7918
vn -0.0583 -0.6864 0.7248
vn -0.2197 -0.7448 0.6301
vn -0.3726 -0.7745 0.5112
vn -0.5112 -0.7745 0.3726
vn -0.6301 -0.7448 0.2197
vn -0.7249 -0.6864 0.0583
vn -0.7918 -0.6017 -0.1053
vn -0.8283 -0.4938 -0.2649
vn -0.8329 -0.3669 -0.4143
vn -0.8056 -0.2260 -0.5477
vn -0.7473 -0.0763 -0.6601
vn -0.8177 -0.2114 -0.5355
vn -0.8524 -0.3433 -0.3943
vn -0.8544 -0.4619 -0.2380
vn -0.6694 -0.6961 0.2595
vn 0.2380 -0.4619 0.8544
vn 0.3943 -0.3433 0.8525
vn 0.5355 -0.2114 0.8177
vn 0.6560 -0.0714 0.7513
vn 0.7514 0.0714 0.6560
vn 0.8177 0.2114 0.5355
vn 0.8525 0.3433 0.3943
vn 0.8544 0.4619 0.2380
vn 0.8235 0.5626 0.0727
vn 0.7611 0.6416 -0.0953
vn 0.6694 0.6961 -0.2596
vn 0.5522 0.7238 -0.4138
vn 0.4138 0.7238 -0.5521
vn 0.2596 0.6961 -0.6694
vn 0.0953 0.6417 -0.7611
vn 0.5417 -0.6428 -0.5416
vn 0.5415 -0.6428 -0.5418
vn 0.5418 -0.6427 -0.5417
vn 0.5416 -0.6428 -0.5417
vn 0.5418 -0.6427 -0.5416
vn 0.5416 -0.6429 -0.5417
vn 0.5415 -0.6430 -0.5416
vn 0.5418 -0.6428 -0.5416
vn -0.5355 0.2115 -0.8176
vn -0.5416 0.6429 0.5416
vn -0.5416 0.6428 0.5416
vn -0.5418 0.6427 0.5417
vn -0.5417 0.6425 0.5420
vn -0.5418 0.6430 0.5413
vn -0.5420 0.6432 0.5408
vn -0.5416 0.6427 0.5418
vn -0.5418 0.6427 0.5416
vn -0.5416 0.6430 0.5415
vn -0.5415 0.6424 0.5423
vn -0.5417 0.6428 0.5416
vn -0.5416 0.6428 0.5417
vn -0.5417 0.6427 0.5417
vn -0.5417 0.6427 0.5418
vn -0.4142 0.3669 -0.8329
vn -0.2649 0.4938 -0.8282
vn 0.2196 0.7448 -0.6302
vn 0.5112 0.7745 -0.3726
vn 0.6301 0.7448 -0.2196
vn 0.8283 0.4938 0.2648
vn 0.8329 0.3669 0.4143
vn 0.8055 0.2259 0.5478
vn 0.4143 -0.3669 0.8329
vn 0.2648 -0.4938 0.8283
vn 0.1053 -0.6017 0.7918
vn -0.0583 -0.6864 0.7249
vn -0.3726 -0.7746 0.5111
vn -0.8283 -0.4938 -0.2648
vn -0.8329 -0.3669 -0.4142
vn -0.8055 -0.2259 -0.5478
vn -0.7472 -0.0763 -0.6602
usemtl None
s off
f 2/1/1 66/2/1 65/3/1
f 4/4/2 67/5/2 66/6/2
f 6/7/3 68/8/3 67/5/3
f 8/9/4 69/10/4 68/8/4
f 10/11/5 70/12/5 69/10/5
f 12/13/6 71/14/6 70/12/6
f 14/15/7 72/16/7 71/14/7
f 16/17/8 73/18/8 72/16/8
f 73/18/9 20/19/9 74/20/9
f 74/20/10 22/21/10 75/22/10
f 75/22/11 24/23/11 76/24/11
f 76/24/12 26/25/12 77/26/12
f 77/26/13 28/27/13 78/28/13
f 78/28/14 30/29/14 79/30/14
f 79/30/15 32/31/15 80/32/15
f 80/33/16 34/34/16 81/35/16
f 81/35/17 36/36/17 82/37/17
f 82/38/18 38/39/18 83/40/18
f 83/40/19 40/41/19 84/42/19
f 84/42/20 42/43/20 85/44/20
f 85/44/21 44/45/21 86/46/21
f 86/46/22 46/47/22 87/48/22
f 87/48/23 48/49/23 88/50/23
f 88/50/24 50/51/24 89/52/24
f 89/52/25 52/53/25 90/54/25
f 52/53/26 91/55/26 90/54/26
f 54/56/27 92/57/27 91/55/27
f 56/58/28 93/59/28 92/57/28
f 58/60/29 94/61/29 93/59/29
f 60/62/30 95/63/30 94/61/30
f 30/64/31 22/65/31 6/66/31
f 62/67/32 96/68/32 95/63/32
f 64/69/33 65/3/33 96/70/33
f 31/71/34 55/72/34 63/73/34
f 63/74/35 65/3/35 1/75/35
f 61/76/36 96/70/36 63/74/36
f 59/77/37 95/78/37 61/76/37
f 57/79/38 94/80/38 59/77/38
f 55/72/39 93/81/39 57/82/39
f 53/83/40 92/84/40 55/72/40
f 51/85/41 91/86/41 53/83/41
f 89/87/42 51/85/42 49/88/42
f 88/89/43 49/88/43 47/90/43
f 87/91/44 47/90/44 45/92/44
f 86/93/45 45/92/45 43/94/45
f 85/95/46 43/94/46 41/96/46
f 84/97/47 41/96/47 39/98/47
f 83/99/48 39/100/48 37/101/48
f 82/37/49 37/101/49 35/102/49
f 81/35/50 35/102/50 33/103/50
f 80/33/51 33/103/51 31/104/51
f 79/105/52 31/104/52 29/106/52
f 78/107/53 29/106/53 27/108/53
f 77/109/54 27/108/54 25/110/54
f 76/111/55 25/112/55 23/113/55
f 75/114/56 23/113/56 21/115/56
f 74/116/57 21/115/57 19/117/57
f 73/118/58 19/117/58 17/119/58
f 15/120/59 73/118/59 17/119/59
f 13/121/60 72/122/60 15/120/60
f 11/123/61 71/124/61 13/121/61
f 9/125/62 70/126/62 11/123/62
f 7/127/63 69/128/63 9/125/63
f 5/129/64 68/130/64 7/131/64
f 3/132/65 67/133/65 5/129/65
f 1/75/66 66/2/66 3/132/66
f 2/1/1 4/134/1 66/2/1
f 4/4/67 6/7/67 67/5/67
f 6/7/68 8/9/68 68/8/68
f 8/9/69 10/11/69 69/10/69
f 10/11/5 12/13/5 70/12/5
f 12/13/6 14/15/6 71/14/6
f 14/15/70 16/17/70 72/16/70
f 16/17/8 18/135/8 73/18/8
f 73/18/9 18/135/9 20/19/9
f 74/20/10 20/19/10 22/21/10
f 75/22/11 22/21/11 24/23/11
f 76/24/12 24/23/12 26/25/12
f 77/26/71 26/25/71 28/27/71
f 78/28/72 28/27/72 30/29/72
f 79/30/73 30/29/73 32/31/73
f 80/33/74 32/136/74 34/34/74
f 81/35/75 34/34/75 36/36/75
f 82/38/76 36/137/76 38/39/76
f 83/40/77 38/39/77 40/41/77
f 84/42/78 40/41/78 42/43/78
f 85/44/79 42/43/79 44/45/79
f 86/46/80 44/45/80 46/47/80
f 87/48/81 46/47/81 48/49/81
f 88/50/82 48/49/82 50/51/82
f 89/52/83 50/51/83 52/53/83
f 52/53/84 54/56/84 91/55/84
f 54/56/85 56/58/85 92/57/85
f 56/58/28 58/60/28 93/59/28
f 58/60/29 60/62/29 94/61/29
f 60/62/30 62/67/30 95/63/30
f 6/66/86 4/138/86 62/67/86
f 2/139/86 64/140/86 62/67/86
f 62/67/87 60/62/87 58/60/87
f 58/60/88 56/58/88 62/67/88
f 54/56/89 52/53/89 46/47/89
f 50/51/90 48/49/90 46/47/90
f 46/47/91 44/45/91 42/43/91
f 42/43/31 40/41/31 46/47/31
f 38/39/89 36/137/89 30/64/89
f 34/141/89 32/142/89 30/64/89
f 30/64/86 28/143/86 26/144/86
f 26/144/31 24/145/31 30/64/31
f 22/65/89 20/146/89 14/147/89
f 18/148/89 16/149/89 14/147/89
f 14/147/92 12/150/92 10/151/92
f 10/151/90 8/152/90 6/66/90
f 4/138/90 2/139/90 62/67/90
f 62/67/31 56/58/31 54/56/31
f 52/53/89 50/51/89 46/47/89
f 46/47/91 40/41/91 38/39/91
f 36/137/93 34/141/93 30/64/93
f 30/64/31 24/145/31 22/65/31
f 20/146/86 18/148/86 14/147/86
f 14/147/31 10/151/31 22/65/31
f 6/66/31 62/67/31 54/56/31
f 54/56/31 46/47/31 6/66/31
f 38/39/31 30/64/31 6/66/31
f 22/65/31 10/151/31 6/66/31
f 6/66/31 46/47/31 38/39/31
f 62/67/94 64/140/94 96/68/94
f 64/69/33 2/1/33 65/3/33
f 63/73/95 1/153/95 3/154/95
f 3/154/95 5/155/95 7/156/95
f 7/156/96 9/157/96 11/158/96
f 11/158/97 13/159/97 7/156/97
f 15/160/98 17/161/98 19/162/98
f 19/162/99 21/163/99 23/164/99
f 23/164/100 25/165/100 27/166/100
f 27/166/101 29/167/101 23/164/101
f 31/71/102 33/168/102 35/169/102
f 35/169/34 37/170/34 31/71/34
f 39/98/103 41/96/103 43/94/103
f 43/94/102 45/92/102 47/90/102
f 47/90/34 49/88/34 55/72/34
f 51/85/104 53/83/104 55/72/104
f 55/72/105 57/82/105 59/171/105
f 59/171/105 61/172/105 55/72/105
f 63/73/34 3/154/34 15/160/34
f 7/156/34 13/159/34 15/160/34
f 15/160/106 19/162/106 31/71/106
f 23/164/105 29/167/105 31/71/105
f 31/71/105 37/170/105 39/98/105
f 39/98/105 43/94/105 31/71/105
f 49/88/107 51/85/107 55/72/107
f 55/72/101 61/172/101 63/73/101
f 3/154/34 7/156/34 15/160/34
f 19/162/108 23/164/108 31/71/108
f 31/71/106 43/94/106 47/90/106
f 47/90/34 55/72/34 31/71/34
f 63/73/34 15/160/34 31/71/34
f 63/74/35 96/70/35 65/3/35
f 61/76/36 95/78/36 96/70/36
f 59/77/109 94/80/109 95/78/109
f 57/79/110 93/173/110 94/80/110
f 55/72/39 92/84/39 93/81/39
f 53/83/40 91/86/40 92/84/40
f 51/85/111 90/174/111 91/86/111
f 89/87/42 90/174/42 51/85/42
f 88/89/112 89/87/112 49/88/112
f 87/91/113 88/89/113 47/90/113
f 86/93/45 87/91/45 45/92/45
f 85/95/46 86/93/46 43/94/46
f 84/97/114 85/95/114 41/96/114
f 83/99/115 84/175/115 39/100/115
f 82/37/116 83/99/116 37/101/116
f 81/35/50 82/37/50 35/102/50
f 80/33/51 81/35/51 33/103/51
f 79/105/52 80/33/52 31/104/52
f 78/107/117 79/105/117 29/106/117
f 77/109/118 78/107/118 27/108/118
f 76/111/119 77/176/119 25/112/119
f 75/114/120 76/111/120 23/113/120
f 74/116/57 75/114/57 21/115/57
f 73/118/121 74/116/121 19/117/121
f 15/120/59 72/122/59 73/118/59
f 13/121/60 71/124/60 72/122/60
f 11/123/61 70/126/61 71/124/61
f 9/125/62 69/128/62 70/126/62
f 7/127/122 68/177/122 69/128/122
f 5/129/123 67/133/123 68/130/123
f 3/132/124 66/2/124 67/133/124
f 1/75/125 65/3/125 66/2/125
o Cloth2_Plane
v -0.170527 0.678756 1.291963
v 0.009264 3.926336 0.013863
v 1.746811 1.613400 -1.723683
v 0.023715 3.926336 0.028313
v -0.156076 0.678756 1.306413
v 1.761261 1.613400 -1.709233
v -1.872746 6.071222 1.895873
v -1.858295 6.071222 1.910324
v 0.436180 3.249198 0.574644
v 0.401703 2.136752 1.029312
v 0.496970 3.092183 0.679651
v 0.524920 2.880249 0.787739
v 0.517292 2.634140 0.888326
v 0.474835 2.377949 0.971566
v -0.036757 3.404124 0.447901
v -0.114883 2.070652 1.030161
v -0.052394 3.204813 0.587812
v -0.069702 2.944935 0.729089
v -0.086986 2.649928 0.857904
v -0.102554 2.348671 0.961646
vt 0.3155 0.8094
vt 0.3760 0.8207
vt 0.3312 0.9734
vt 0.7970 0.7419
vt 0.4138 0.7420
vt 0.7968 0.7383
vt 0.0272 0.7528
vt 0.9643 0.7403
vt 0.9645 0.7439
vt 0.0266 0.7420
vt 0.5380 0.7408
vt 0.0268 0.7456
vt 0.4140 0.7455
vt 0.0268 0.7456
vt 0.6605 0.8337
vt 0.6896 0.8113
vt 0.8591 0.9482
vt 0.9645 0.7439
vt 0.3731 0.8196
vt 0.3123 0.8084
vt 0.6741 0.8096
vt 0.6440 0.8318
vt 0.0891 0.9555
vt 0.6604 0.8702
vt 0.5011 0.8407
vt 0.0272 0.7528
vt 0.2266 0.7898
vt 0.2678 0.7983
vt 0.4439 0.8310
vt 0.0270 0.7492
vt 0.5378 0.7372
vt 0.8600 0.6761
vt 0.7316 0.7729
vt 0.4768 0.9651
vt 0.5979 0.8738
vt 0.6256 0.8551
vt 0.7112 0.7903
vt 0.4435 0.8307
vt 0.2671 0.7980
vt 0.7067 0.7898
vt 0.6204 0.8545
vn -0.8346 -0.1786 -0.5211
vn 0.4847 0.7282 -0.4846
vn -0.6768 -0.2895 0.6768
vn 0.1830 -0.9659 -0.1830
vn 0.4437 0.7786 -0.4437
vn 0.9132 0.1296 0.3864
vn -0.7679 -0.2180 -0.6024
vn 0.6748 0.2612 0.6902
vn -0.8434 -0.2975 -0.4474
vn -0.8318 -0.0703 -0.5506
vn -0.8330 -0.1412 -0.5350
vn -0.8371 -0.2172 -0.5021
vn -0.8408 -0.2653 -0.4719
vn -0.8319 -0.0977 -0.5462
vn 0.4846 0.7282 -0.4847
vn 0.8514 -0.2368 0.4680
vn 0.8235 0.5622 0.0751
vn 0.9095 0.2777 0.3094
vn 0.9006 -0.0081 0.4345
vn 0.8730 -0.1539 0.4628
vn 0.8715 0.4568 0.1785
vn -0.8262 -0.3153 -0.4669
vn -0.8152 -0.2886 -0.5022
vn -0.6404 -0.1172 -0.7590
vn -0.6839 -0.1458 -0.7148
vn -0.7927 -0.2496 -0.5562
vn -0.7355 -0.1863 -0.6514
vn 0.7982 0.5888 0.1272
vn 0.3969 0.0225 0.9176
vn 0.5797 0.1633 0.7983
vn -0.4964 0.3416 0.7981
vn 0.7893 0.4382 0.4300
vn 0.4657 0.0700 0.8822
usemtl None
s off
f 115/178/126 114/179/126 99/180/126
f 99/181/127 100/182/127 102/183/127
f 104/184/128 97/185/128 101/186/128
f 97/187/129 102/188/129 101/189/129
f 98/190/130 104/191/130 100/182/130
f 108/192/131 109/193/131 102/194/131
f 103/195/132 114/196/132 115/197/132
f 109/198/133 108/199/133 104/200/133
f 98/201/134 99/180/134 111/202/134
f 97/203/135 112/204/135 99/180/135
f 116/205/136 115/178/136 99/180/136
f 114/179/137 113/206/137 99/180/137
f 111/202/138 99/180/138 113/206/138
f 112/204/139 116/205/139 99/180/139
f 99/181/140 98/190/140 100/182/140
f 104/184/128 103/207/128 97/185/128
f 97/187/129 99/208/129 102/188/129
f 98/190/130 103/207/130 104/191/130
f 101/209/141 102/194/141 106/210/141
f 100/211/142 105/212/142 102/194/142
f 107/213/143 108/192/143 102/194/143
f 109/193/144 110/214/144 102/194/144
f 106/210/145 102/194/145 110/214/145
f 105/212/146 107/213/146 102/194/146
f 103/195/147 98/201/147 111/202/147
f 103/195/148 111/202/148 113/215/148
f 112/204/149 97/203/149 103/195/149
f 116/216/150 112/204/150 103/195/150
f 103/195/151 113/215/151 114/196/151
f 115/197/152 116/216/152 103/195/152
f 100/211/153 104/200/153 105/212/153
f 101/209/154 106/210/154 104/200/154
f 110/217/155 109/198/155 104/200/155
f 108/199/156 107/218/156 105/212/156
f 105/212/157 104/200/157 108/199/157
f 106/210/158 110/217/158 104/200/158
