# Blender v2.78 (sub 0) OBJ File: 'Ship.blend'
# www.blender.org
mtllib sail3.mtl
o Sail3_Cylinder.002
v -1.343868 4.568947 1.077912
v 0.969854 1.950304 -0.863531
v -1.347575 4.562448 1.081978
v 0.966146 1.943804 -0.859464
v -1.350199 4.556198 1.087010
v 0.963522 1.937554 -0.854433
v -1.351639 4.550437 1.092813
v 0.962082 1.931794 -0.848630
v -1.351839 4.545389 1.099165
v 0.961882 1.926745 -0.842277
v -1.350792 4.541245 1.105822
v 0.962929 1.922602 -0.835621
v -1.348538 4.538167 1.112528
v 0.965184 1.919523 -0.828915
v -1.345163 4.536271 1.119024
v 0.968558 1.917627 -0.822418
v -1.340797 4.535631 1.125063
v 0.972924 1.916987 -0.816380
v -1.335609 4.536271 1.130410
v 0.978112 1.917627 -0.811032
v -1.329797 4.538167 1.134862
v 0.983924 1.919523 -0.806581
v -1.323585 4.541245 1.138246
v 0.990137 1.922602 -0.803196
v -1.317211 4.545389 1.140434
v 0.996510 1.926745 -0.801009
v -1.310920 4.550437 1.141339
v 1.002801 1.931794 -0.800103
v -1.304955 4.556198 1.140929
v 1.008766 1.937554 -0.800513
v -1.299544 4.562448 1.139219
v 1.014177 1.943804 -0.802224
v -1.294896 4.568947 1.136274
v 1.018825 1.950304 -0.805169
v -1.291188 4.575447 1.132207
v 1.022533 1.956804 -0.809235
v -1.288564 4.581697 1.127176
v 1.025157 1.963054 -0.814267
v -1.287125 4.587457 1.121372
v 1.026597 1.968814 -0.820070
v -1.286924 4.592506 1.115020
v 1.026797 1.973862 -0.826422
v -1.287972 4.596649 1.108363
v 1.025750 1.978006 -0.833079
v -1.290226 4.599728 1.101658
v 1.023495 1.981084 -0.839785
v -1.293601 4.601624 1.095161
v 1.020121 1.982980 -0.846282
v -1.297966 4.602264 1.089123
v 1.015755 1.983621 -0.852320
v -1.303155 4.601624 1.083775
v 1.010567 1.982980 -0.857667
v -1.308967 4.599728 1.079324
v 1.004755 1.981084 -0.862119
v -1.315179 4.596649 1.075939
v 0.998542 1.978006 -0.865503
v -1.321553 4.592506 1.073752
v 0.992168 1.973862 -0.867691
v -1.327843 4.587457 1.072846
v 0.985878 1.968814 -0.868597
v -1.333808 4.581697 1.073256
v 0.979913 1.963053 -0.868186
v -1.339219 4.575447 1.074967
v 0.974502 1.956803 -0.866476
v -0.024486 3.210121 -0.029181
v -0.028193 3.203621 -0.025115
v -0.030817 3.197371 -0.020083
v -0.032257 3.191611 -0.014280
v -0.032457 3.186562 -0.007928
v -0.031410 3.182419 -0.001271
v -0.029156 3.179340 0.005435
v -0.025781 3.177444 0.011932
v -0.021416 3.176804 0.017970
v -0.016227 3.177444 0.023318
v -0.010415 3.179340 0.027769
v -0.004203 3.182419 0.031154
v 0.002171 3.186562 0.033341
v 0.008461 3.191611 0.034247
v 0.014427 3.197371 0.033837
v 0.019837 3.203621 0.032126
v 0.024486 3.210121 0.029181
v 0.028193 3.216621 0.025115
v 0.030817 3.222871 0.020083
v 0.032257 3.228631 0.014280
v 0.032457 3.233680 0.007928
v 0.031410 3.237823 0.001271
v 0.029156 3.240902 -0.005435
v 0.025781 3.242798 -0.011932
v 0.021416 3.243438 -0.017970
v 0.016227 3.242798 -0.023318
v 0.010415 3.240902 -0.027769
v 0.004203 3.237823 -0.031154
v -0.002171 3.233680 -0.033341
v -0.008461 3.228631 -0.034247
v -0.014427 3.222871 -0.033837
v -0.019837 3.216621 -0.032126
vt 0.7011 0.1187
vt 0.1471 0.1452
vt 0.1238 0.1364
vt 0.1043 0.4625
vt 0.6606 0.4499
vt 0.6832 0.4625
vt 0.0818 0.4499
vt 0.6398 0.4293
vt 0.0610 0.4293
vt 0.6216 0.4017
vt 0.0427 0.4017
vt 0.6066 0.3680
vt 0.0278 0.3680
vt 0.5955 0.3296
vt 0.0166 0.3296
vt 0.5887 0.2879
vt 0.0098 0.2879
vt 0.5863 0.2446
vt 0.0098 0.2013
vt 0.5887 0.2013
vt 0.0166 0.1596
vt 0.5955 0.1596
vt 0.0278 0.1212
vt 0.6066 0.1212
vt 0.0427 0.0875
vt 0.6216 0.0875
vt 0.0610 0.0599
vt 0.6398 0.0599
vt 0.0818 0.0394
vt 0.6606 0.0394
vt 0.1043 0.0267
vt 0.6832 0.0267
vt 0.6513 0.1545
vt 0.0976 0.1283
vt 0.6749 0.1463
vt 0.1209 0.1196
vt 0.6982 0.1376
vt 0.1048 0.0195
vt 0.6611 0.0361
vt 0.0822 0.0320
vt 0.6402 0.0565
vt 0.0614 0.0524
vt 0.6219 0.0840
vt 0.0431 0.0799
vt 0.6069 0.1175
vt 0.0280 0.1134
vt 0.5957 0.1559
vt 0.0168 0.1518
vt 0.5887 0.1975
vt 0.0099 0.1934
vt 0.5863 0.2408
vt 0.0075 0.2367
vt 0.0097 0.2801
vt 0.5886 0.2842
vt 0.0164 0.3218
vt 0.5953 0.3259
vt 0.0275 0.3603
vt 0.6064 0.3644
vt 0.0424 0.3941
vt 0.6212 0.3982
vt 0.0606 0.4218
vt 0.6394 0.4259
vt 0.0813 0.4425
vt 0.7921 0.0852
vt 0.7731 0.4269
vt 0.7739 0.0574
vt 0.6602 0.4466
vt 0.1039 0.4553
vt 0.6775 0.1106
vt 0.1002 0.1283
vt 0.7904 0.0702
vt 0.7482 0.4544
vt 0.7708 0.0460
vt 0.2598 0.4114
vt 0.2834 0.4196
vt 0.2367 0.4043
vt 0.2151 0.3983
vt 0.0772 0.1211
vt 0.1958 0.3938
vt 0.0556 0.1151
vt 0.8064 0.3828
vt 0.9479 0.4424
vt 0.7897 0.4136
vt 0.8196 0.3466
vt 0.9647 0.4116
vt 0.8287 0.3064
vt 0.9779 0.3754
vt 0.8334 0.2637
vt 0.9870 0.3351
vt 0.9918 0.2489
vt 0.8335 0.2201
vt 0.9873 0.2062
vt 0.8290 0.1774
vt 0.9783 0.1660
vt 0.8200 0.1372
vt 0.9653 0.1298
vt 0.8070 0.1010
vt 0.9487 0.0990
vt 0.7202 0.1286
vt 0.5806 0.4026
vt 0.5606 0.4116
vt 0.5386 0.4207
vt 0.5153 0.4294
vt 0.4917 0.4375
vt 0.6282 0.1616
vt 0.4686 0.4447
vt 0.6066 0.1676
vt 0.4470 0.4507
vt 0.5873 0.1721
vt 0.4277 0.4552
vt 0.4214 0.3770
vt 0.2773 0.4107
vt 0.2623 0.3770
vt 0.4103 0.3386
vt 0.2512 0.3386
vt 0.4034 0.2969
vt 0.2444 0.2969
vt 0.4011 0.2536
vt 0.2420 0.2536
vt 0.2444 0.2103
vt 0.2512 0.1686
vt 0.4034 0.2103
vt 0.2623 0.1302
vt 0.4103 0.1686
vt 0.2773 0.0965
vt 0.4214 0.1302
vt 0.2955 0.0689
vt 0.4364 0.0965
vt 0.3287 0.4374
vt 0.1891 0.1632
vt 0.3486 0.4464
vt 0.3067 0.4283
vt 0.1692 0.1542
vt 0.7244 0.1275
vt 0.0075 0.2446
vt 0.0740 0.1364
vt 0.6837 0.0236
vt 0.7523 0.4472
vt 0.7297 0.4597
vt 0.7306 0.0239
vt 0.7062 0.4638
vt 0.6827 0.4594
vt 0.7072 0.0195
vt 0.7532 0.0367
vt 0.8070 0.1189
vt 0.7914 0.3994
vt 0.8180 0.1574
vt 0.8248 0.1992
vt 0.8177 0.3275
vt 0.8270 0.2425
vt 0.8246 0.2858
vt 0.8065 0.3658
vt 0.7250 0.4629
vt 0.7014 0.4629
vt 0.7259 0.0208
vt 0.6783 0.4544
vt 0.6565 0.4378
vt 0.7023 0.0208
vt 0.6369 0.4136
vt 0.6203 0.3828
vt 0.6377 0.0702
vt 0.6073 0.3466
vt 0.5983 0.3064
vt 0.6209 0.1010
vt 0.5938 0.2637
vt 0.5939 0.2201
vt 0.5986 0.1774
vt 0.6077 0.1372
vt 0.6573 0.0460
vt 0.6792 0.0293
vt 0.7490 0.0293
vt 0.7700 0.4378
vt 0.0363 0.1106
vt 0.9917 0.2924
vt 0.7401 0.1196
vt 0.4364 0.4107
vt 0.4546 0.0689
vn -0.6864 -0.0618 -0.7246
vn -0.7585 -0.1847 -0.6250
vn -0.8086 -0.3049 -0.5032
vn -0.8334 -0.4196 -0.3597
vn -0.8287 -0.5243 -0.1959
vn -0.7899 -0.6130 -0.0159
vn -0.7142 -0.6783 0.1730
vn -0.6019 -0.7131 0.3595
vn -0.4586 -0.7131 0.5302
vn -0.2944 -0.6783 0.6733
vn -0.1215 -0.6130 0.7807
vn 0.0491 -0.5243 0.8501
vn 0.2095 -0.4196 0.8832
vn 0.3552 -0.3049 0.8837
vn 0.4838 -0.1847 0.8555
vn 0.5944 -0.0618 0.8018
vn 0.6864 0.0618 0.7246
vn 0.7584 0.1847 0.6250
vn 0.8086 0.3049 0.5032
vn 0.8334 0.4196 0.3597
vn 0.8287 0.5243 0.1960
vn 0.7899 0.6130 0.0159
vn 0.7142 0.6783 -0.1730
vn 0.6018 0.7131 -0.3596
vn 0.4586 0.7131 -0.5303
vn 0.2944 0.6783 -0.6733
vn 0.1215 0.6130 -0.7807
vn -0.0491 0.5243 -0.8501
vn -0.2095 0.4196 -0.8832
vn -0.3552 0.3049 -0.8837
vn 0.5868 -0.6428 -0.4924
vn -0.4838 0.1847 -0.8555
vn -0.5944 0.0618 -0.8018
vn -0.5868 0.6428 0.4924
vn -0.5996 0.0675 -0.7974
vn -0.4993 0.2017 -0.8426
vn -0.3809 0.3330 -0.8626
vn -0.2448 0.4584 -0.8544
vn -0.0931 0.5730 -0.8143
vn 0.0703 0.6702 -0.7388
vn 0.2381 0.7419 -0.6268
vn 0.3997 0.7801 -0.4813
vn 0.5433 0.7802 -0.3100
vn 0.6587 0.7419 -0.1256
vn 0.7398 0.6702 0.0591
vn 0.7857 0.5730 0.2331
vn 0.7989 0.4584 0.3895
vn 0.7834 0.3330 0.5248
vn 0.7431 0.2017 0.6381
vn 0.6812 0.0675 0.7290
vn 0.5996 -0.0675 0.7975
vn 0.4993 -0.2017 0.8426
vn 0.3808 -0.3330 0.8626
vn 0.2448 -0.4583 0.8544
vn 0.0931 -0.5730 0.8142
vn -0.0703 -0.6702 0.7388
vn -0.2381 -0.7419 0.6268
vn -0.3997 -0.7802 0.4812
vn -0.5433 -0.7802 0.3102
vn -0.6587 -0.7419 0.1256
vn -0.7398 -0.6702 -0.0591
vn -0.7857 -0.5730 -0.2331
vn -0.7989 -0.4584 -0.3895
vn -0.7833 -0.3330 -0.5249
vn -0.7431 -0.2017 -0.6381
vn -0.6812 -0.0675 -0.7290
vn -0.8287 -0.5243 -0.1960
vn -0.6018 -0.7131 0.3595
vn -0.4586 -0.7131 0.5303
vn 0.7585 0.1847 0.6250
vn 0.8334 0.4195 0.3597
vn 0.6019 0.7131 -0.3595
vn -0.2095 0.4195 -0.8832
vn 0.5868 -0.6428 -0.4925
vn 0.5870 -0.6428 -0.4922
vn 0.5869 -0.6428 -0.4924
vn 0.5869 -0.6426 -0.4925
vn 0.5868 -0.6428 -0.4923
vn -0.5868 0.6428 0.4925
vn -0.5869 0.6428 0.4923
vn -0.5867 0.6430 0.4923
vn -0.5869 0.6428 0.4922
vn -0.5870 0.6427 0.4924
vn -0.5867 0.6428 0.4925
vn -0.5868 0.6428 0.4923
vn -0.5868 0.6429 0.4923
vn -0.5869 0.6428 0.4924
vn -0.5868 0.6427 0.4926
vn -0.5868 0.6427 0.4924
vn -0.5868 0.6427 0.4925
vn -0.3808 0.3330 -0.8626
vn -0.2449 0.4584 -0.8544
vn -0.0931 0.5730 -0.8142
vn 0.0703 0.6703 -0.7388
vn 0.3997 0.7802 -0.4812
vn 0.5433 0.7802 -0.3101
vn 0.6586 0.7419 -0.1257
vn 0.7398 0.6702 0.0589
vn 0.7989 0.4584 0.3894
vn 0.7833 0.3330 0.5249
vn 0.5996 -0.0675 0.7974
vn 0.2448 -0.4584 0.8544
vn -0.5433 -0.7802 0.3101
vn -0.7398 -0.6702 -0.0590
vn -0.7431 -0.2017 -0.6380
usemtl None
s off
f 2/1/1 66/2/1 65/3/1
f 4/4/2 67/5/2 66/6/2
f 6/7/3 68/8/3 67/5/3
f 8/9/4 69/10/4 68/8/4
f 10/11/5 70/12/5 69/10/5
f 12/13/6 71/14/6 70/12/6
f 14/15/7 72/16/7 71/14/7
f 16/17/8 73/18/8 72/16/8
f 73/18/9 20/19/9 74/20/9
f 74/20/10 22/21/10 75/22/10
f 75/22/11 24/23/11 76/24/11
f 76/24/12 26/25/12 77/26/12
f 77/26/13 28/27/13 78/28/13
f 78/28/14 30/29/14 79/30/14
f 79/30/15 32/31/15 80/32/15
f 80/33/16 34/34/16 81/35/16
f 81/35/17 36/36/17 82/37/17
f 82/38/18 38/39/18 83/40/18
f 83/40/19 40/41/19 84/42/19
f 84/42/20 42/43/20 85/44/20
f 85/44/21 44/45/21 86/46/21
f 86/46/22 46/47/22 87/48/22
f 87/48/23 48/49/23 88/50/23
f 88/50/24 50/51/24 89/52/24
f 50/51/25 90/53/25 89/52/25
f 52/54/26 91/55/26 90/53/26
f 54/56/27 92/57/27 91/55/27
f 56/58/28 93/59/28 92/57/28
f 58/60/29 94/61/29 93/59/29
f 60/62/30 95/63/30 94/61/30
f 26/64/31 8/65/31 28/66/31
f 62/67/32 96/68/32 95/63/32
f 64/69/33 65/3/33 96/70/33
f 39/71/34 61/72/34 37/73/34
f 63/74/35 65/3/35 1/75/35
f 61/76/36 96/70/36 63/74/36
f 59/77/37 95/78/37 61/76/37
f 57/79/38 94/80/38 59/77/38
f 55/81/39 93/82/39 57/83/39
f 53/84/40 92/85/40 55/81/40
f 51/86/41 91/87/41 53/84/41
f 49/88/42 90/89/42 51/86/42
f 88/90/43 49/88/43 47/91/43
f 87/92/44 47/91/44 45/93/44
f 86/94/45 45/93/45 43/95/45
f 85/96/46 43/95/46 41/97/46
f 84/98/47 41/97/47 39/71/47
f 83/99/48 39/100/48 37/101/48
f 82/37/49 37/101/49 35/102/49
f 81/35/50 35/102/50 33/103/50
f 80/33/51 33/103/51 31/104/51
f 79/105/52 31/104/52 29/106/52
f 78/107/53 29/106/53 27/108/53
f 77/109/54 27/108/54 25/110/54
f 76/111/55 25/112/55 23/113/55
f 75/114/56 23/113/56 21/115/56
f 74/116/57 21/115/57 19/117/57
f 73/118/58 19/117/58 17/119/58
f 15/120/59 73/118/59 17/119/59
f 13/121/60 72/122/60 15/120/60
f 11/123/61 71/124/61 13/121/61
f 9/125/62 70/126/62 11/123/62
f 7/127/63 69/128/63 9/125/63
f 5/129/64 68/130/64 7/131/64
f 3/132/65 67/133/65 5/129/65
f 1/75/66 66/2/66 3/132/66
f 2/1/1 4/134/1 66/2/1
f 4/4/2 6/7/2 67/5/2
f 6/7/3 8/9/3 68/8/3
f 8/9/4 10/11/4 69/10/4
f 10/11/67 12/13/67 70/12/67
f 12/13/6 14/15/6 71/14/6
f 14/15/7 16/17/7 72/16/7
f 16/17/68 18/135/68 73/18/68
f 73/18/69 18/135/69 20/19/69
f 74/20/10 20/19/10 22/21/10
f 75/22/11 22/21/11 24/23/11
f 76/24/12 24/23/12 26/25/12
f 77/26/13 26/25/13 28/27/13
f 78/28/14 28/27/14 30/29/14
f 79/30/15 30/29/15 32/31/15
f 80/33/16 32/136/16 34/34/16
f 81/35/17 34/34/17 36/36/17
f 82/38/70 36/137/70 38/39/70
f 83/40/19 38/39/19 40/41/19
f 84/42/71 40/41/71 42/43/71
f 85/44/21 42/43/21 44/45/21
f 86/46/22 44/45/22 46/47/22
f 87/48/23 46/47/23 48/49/23
f 88/50/72 48/49/72 50/51/72
f 50/51/25 52/54/25 90/53/25
f 52/54/26 54/56/26 91/55/26
f 54/56/27 56/58/27 92/57/27
f 56/58/28 58/60/28 93/59/28
f 58/60/73 60/62/73 94/61/73
f 60/62/30 62/67/30 95/63/30
f 6/138/31 4/139/31 32/140/31
f 2/141/31 64/142/31 36/137/31
f 62/67/31 60/62/31 38/39/31
f 58/60/31 56/58/31 42/43/31
f 54/56/74 52/54/74 48/49/74
f 50/51/75 48/49/75 52/54/75
f 46/47/76 44/45/76 54/56/76
f 42/43/31 40/41/31 58/60/31
f 38/39/31 36/137/31 64/142/31
f 34/143/31 32/140/31 4/139/31
f 30/144/31 28/66/31 6/138/31
f 26/64/31 24/145/31 10/146/31
f 22/147/31 20/148/31 14/149/31
f 18/150/77 16/151/77 20/148/77
f 14/149/31 12/152/31 22/147/31
f 10/146/31 8/65/31 26/64/31
f 4/139/31 2/141/31 34/143/31
f 60/62/31 40/41/31 38/39/31
f 54/56/31 48/49/31 46/47/31
f 44/45/31 56/58/31 54/56/31
f 36/137/31 34/143/31 2/141/31
f 28/66/31 8/65/31 6/138/31
f 20/148/78 16/151/78 14/149/78
f 12/152/31 24/145/31 22/147/31
f 64/142/31 62/67/31 38/39/31
f 44/45/31 42/43/31 56/58/31
f 32/140/31 30/144/31 6/138/31
f 12/152/31 10/146/31 24/145/31
f 58/60/31 40/41/31 60/62/31
f 62/67/32 64/142/32 96/68/32
f 64/69/33 2/1/33 65/3/33
f 63/153/34 1/154/34 33/155/34
f 3/156/34 5/157/34 31/158/34
f 7/159/79 9/160/79 25/161/79
f 11/162/80 13/163/80 23/164/80
f 15/165/81 17/166/81 19/167/81
f 19/167/82 21/168/82 15/165/82
f 23/164/79 25/161/79 9/160/79
f 27/169/34 29/170/34 7/159/34
f 31/158/34 33/155/34 1/154/34
f 35/171/34 37/73/34 63/153/34
f 39/71/34 41/97/34 57/83/34
f 43/95/80 45/93/80 55/81/80
f 47/91/83 49/88/83 51/86/83
f 51/86/84 53/84/84 47/91/84
f 55/81/79 57/83/79 41/97/79
f 59/172/85 61/72/85 39/71/85
f 1/154/34 3/156/34 31/158/34
f 9/160/86 11/162/86 23/164/86
f 15/165/87 21/168/87 13/163/87
f 25/161/34 27/169/34 7/159/34
f 33/155/79 35/171/79 63/153/79
f 41/97/85 43/95/85 55/81/85
f 47/91/79 53/84/79 45/93/79
f 57/83/79 59/172/79 39/71/79
f 5/157/34 29/170/34 31/158/34
f 21/168/88 23/164/88 13/163/88
f 37/73/89 61/72/89 63/153/89
f 53/84/90 55/81/90 45/93/90
f 7/159/34 29/170/34 5/157/34
f 63/74/35 96/70/35 65/3/35
f 61/76/36 95/78/36 96/70/36
f 59/77/91 94/80/91 95/78/91
f 57/79/92 93/173/92 94/80/92
f 55/81/93 92/85/93 93/82/93
f 53/84/94 91/87/94 92/85/94
f 51/86/41 90/89/41 91/87/41
f 49/88/95 89/174/95 90/89/95
f 88/90/96 89/174/96 49/88/96
f 87/92/97 88/90/97 47/91/97
f 86/94/98 87/92/98 45/93/98
f 85/96/46 86/94/46 43/95/46
f 84/98/99 85/96/99 41/97/99
f 83/99/100 84/175/100 39/100/100
f 82/37/49 83/99/49 37/101/49
f 81/35/50 82/37/50 35/102/50
f 80/33/101 81/35/101 33/103/101
f 79/105/52 80/33/52 31/104/52
f 78/107/53 79/105/53 29/106/53
f 77/109/102 78/107/102 27/108/102
f 76/111/55 77/176/55 25/112/55
f 75/114/56 76/111/56 23/113/56
f 74/116/57 75/114/57 21/115/57
f 73/118/58 74/116/58 19/117/58
f 15/120/103 72/122/103 73/118/103
f 13/121/60 71/124/60 72/122/60
f 11/123/104 70/126/104 71/124/104
f 9/125/62 69/128/62 70/126/62
f 7/127/63 68/177/63 69/128/63
f 5/129/64 67/133/64 68/130/64
f 3/132/105 66/2/105 67/133/105
f 1/75/66 65/3/66 66/2/66
