# Blender v2.78 (sub 0) OBJ File: 'Ship.blend'
# www.blender.org
mtllib sail1ClothClosed.mtl
o ClothClosed_Plane.004
v 0.764974 2.513699 -0.659906
v 0.044121 3.392953 -0.080589
v 1.891897 1.840378 -1.945318
v 0.044369 3.392953 -0.080342
v 0.732004 2.513699 -0.692876
v 1.951165 1.840378 -1.886050
v -1.759100 5.024314 1.847000
v -1.854366 5.054800 1.826408
v 0.243036 3.277366 -0.210747
v 0.576352 2.747663 -0.591393
v 0.357292 3.189613 -0.253276
v 0.436471 3.092878 -0.328689
v 0.437839 3.024239 -0.394510
v 0.499233 2.929479 -0.452581
v 0.582409 2.815057 -0.533007
v 0.576845 2.685122 -0.527179
v 0.161934 3.325349 -0.134393
v 0.290627 3.147186 -0.257459
v 0.405080 2.973185 -0.366197
v 0.500311 2.816231 -0.455898
vt 0.8024 0.7327
vt 0.4140 0.7292
vt 0.8024 0.7292
vt 0.0216 0.7327
vt 0.9721 0.7361
vt 0.0216 0.7361
vt 0.2826 0.7821
vt 0.9293 0.7966
vt 0.2826 0.7966
vt 0.0216 0.7292
vt 0.4595 0.9509
vt 0.5399 0.8959
vt 0.5733 0.8713
vt 0.6086 0.8425
vt 0.6460 0.8129
vt 0.6896 0.7878
vt 0.7289 0.7651
vt 0.7597 0.7455
vt 0.8640 0.6742
vt 0.2155 0.9268
vt 0.7366 0.6759
vt 0.6269 0.9485
vt 0.3986 0.8037
vt 0.2876 0.7836
vt 0.1986 0.7688
vt 0.1216 0.7550
vt 0.0216 0.7361
vt 0.4284 1.0004
vt 0.6865 0.7323
vt 0.0128 0.6771
vt 0.9448 0.6865
vt 0.4140 0.7327
vt 0.9721 0.7327
vt 0.9293 0.7821
vt 0.0000 0.0000
vn 0.3600 0.8607 -0.3600
vn 0.3591 0.8155 -0.4539
vn 0.2596 0.9302 -0.2596
vn -0.3559 -0.8506 0.3870
vn 0.0443 0.7802 -0.6240
vn 0.5833 0.8065 -0.0970
vn 0.7589 0.1227 0.6395
vn 0.1705 -0.6802 0.7129
vn 0.7158 0.0364 0.6974
vn 0.7110 0.0229 0.7028
vn 0.2515 -0.6466 0.7202
vn 0.7415 0.2180 0.6346
vn 0.0214 0.7642 -0.6447
vn 0.5803 0.8074 -0.1070
vn 0.6742 -0.0236 0.7382
vn 0.0875 -0.6886 0.7199
vn 0.7069 0.0248 0.7069
vn 0.6966 0.0021 0.7175
vn 0.1184 -0.6562 0.7452
vn 0.8026 0.3139 0.5073
vn -0.7621 -0.1098 -0.6380
vn -0.7580 -0.0953 -0.6453
vn -0.7560 -0.0879 -0.6487
vn -0.7562 -0.0890 -0.6482
vn -0.7551 -0.5318 -0.3834
vn -0.2765 -0.8455 0.4569
vn -0.7550 -0.0975 -0.6484
vn -0.7500 -0.0832 -0.6562
vn -0.7472 -0.0761 -0.6602
vn -0.7483 -0.0787 -0.6587
vn -0.5615 -0.7947 0.2306
vn 0.3600 0.8606 -0.3602
vn 0.4077 0.8170 -0.4077
vn -0.2596 -0.9302 0.2596
vn 0.3719 0.8508 -0.3713
vn -0.3035 -0.8583 0.4139
usemtl None
s off
f 3/1/1 4/2/1 6/3/1
f 7/4/2 5/5/2 8/6/2
f 1/7/3 6/8/3 5/9/3
f 4/2/4 7/4/4 8/10/4
f 4/11/5 9/12/5 6/3/5
f 9/12/6 11/13/6 6/3/6
f 11/13/7 12/14/7 6/3/7
f 12/14/8 13/15/8 6/3/8
f 13/15/9 14/16/9 6/3/9
f 14/16/10 15/17/10 6/3/10
f 15/17/11 10/18/11 6/3/11
f 6/3/12 10/18/12 5/19/12
f 4/11/13 8/10/13 9/12/13
f 9/12/14 8/10/14 11/13/14
f 11/13/15 8/10/15 12/14/15
f 12/14/16 8/10/16 13/15/16
f 13/15/17 8/10/17 14/16/17
f 14/16/18 8/10/18 15/17/18
f 15/17/19 8/10/19 10/18/19
f 8/10/20 5/19/20 10/18/20
f 17/20/21 3/21/21 18/22/21
f 18/23/22 3/1/22 19/24/22
f 19/24/23 3/1/23 20/25/23
f 20/25/24 3/1/24 16/26/24
f 3/1/25 1/27/25 16/26/25
f 7/28/26 2/29/26 17/30/26
f 17/30/27 18/31/27 7/28/27
f 18/22/28 19/24/28 7/4/28
f 19/24/29 20/25/29 7/4/29
f 20/25/30 16/26/30 7/4/30
f 7/4/31 16/26/31 1/27/31
f 3/1/32 2/32/32 4/2/32
f 7/4/33 1/33/33 5/5/33
f 1/7/34 3/34/34 6/8/34
f 4/2/35 2/32/35 7/4/35
usemtl None_NONE
f 17/35/36 2/32/36 3/1/36
