# Blender v2.78 (sub 0) OBJ File: ''
# www.blender.org
mtllib testObj.mtl
o Cube
v 0.696843 -0.511503 0.741070
v 0.696843 -0.511503 2.134757
v -0.696844 -0.511503 2.134757
v -0.696843 -0.511503 0.741069
v 1.000000 1.000000 -0.999999
v 0.999999 1.000000 1.000001
v -1.000000 1.000000 1.000000
v -1.000000 1.000000 -1.000000
v 1.000000 -1.000000 -1.000000
v 1.000000 -1.000000 1.000000
v -1.000000 -1.000000 -1.000000
v -1.000000 -1.000000 1.000000
v 0.696844 0.511503 0.741070
v 0.696843 0.511503 2.134757
v -0.696844 0.511503 0.741070
v -0.696844 0.511503 2.134756
vn 0.0000 -1.0000 0.0000
vn 0.0000 1.0000 0.0000
vn 1.0000 -0.0000 0.0000
vn 0.0000 -0.0000 1.0000
vn -1.0000 -0.0000 -0.0000
vn 0.0000 0.0000 -1.0000
vn 0.8497 0.5273 0.0000
vn 0.0000 0.9628 -0.2701
vn -0.0000 -0.9185 0.3954
vn -0.8497 0.5273 -0.0000
vn 0.8497 -0.5273 0.0000
vn 0.0000 -0.9628 -0.2701
vn -0.0000 0.9185 0.3954
vn -0.8497 -0.5273 -0.0000
usemtl Material
s off
f 10//1 11//1 9//1
f 8//2 6//2 5//2
f 13//3 2//3 1//3
f 14//4 3//4 2//4
f 16//5 4//5 3//5
f 1//6 15//6 13//6
f 1//7 10//7 9//7
f 1//8 11//8 4//8
f 2//9 12//9 10//9
f 4//10 12//10 3//10
f 13//11 6//11 14//11
f 15//12 5//12 13//12
f 16//13 6//13 7//13
f 15//14 7//14 8//14
f 10//1 12//1 11//1
f 8//2 7//2 6//2
f 13//3 14//3 2//3
f 14//4 16//4 3//4
f 16//5 15//5 4//5
f 1//6 4//6 15//6
f 1//7 2//7 10//7
f 1//8 9//8 11//8
f 2//9 3//9 12//9
f 4//10 11//10 12//10
f 13//11 5//11 6//11
f 15//12 8//12 5//12
f 16//13 14//13 6//13
f 15//14 16//14 7//14
